Capriola.glyphspackage
{
color = 6;
glyphname = parenleft;
layers = (
{
background = {
shapes = (
{
closed = 1;
nodes = (
(654,-371,o),
(692,-362,o),
(735,-322,cs),
(785,-276,o),
(792,-251,o),
(792,-227,cs),
(792,-194,o),
(758,-148,o),
(743,-129,cs),
(578,69,o),
(475,410,o),
(475,750,cs),
(475,1066,o),
(548,1435,o),
(761,1653,cs),
(790,1684,o),
(800,1712,o),
(800,1737,cs),
(800,1770,o),
(785,1800,o),
(751,1830,cs),
(708,1871,o),
(676,1879,o),
(648,1879,cs),
(618,1879,o),
(585,1867,o),
(564,1847,cs),
(285,1556,o),
(164,1112,o),
(164,759,cs),
(164,377,o),
(289,-44,o),
(541,-326,cs),
(563,-349,o),
(598,-371,o),
(638,-371,cs)
);
}
);
};
layerId = "997F8AB0-1B91-48A1-A6B5-F95345F1D981";
shapes = (
{
closed = 1;
nodes = (
(654,-371,o),
(692,-362,o),
(735,-322,cs),
(785,-276,o),
(792,-251,o),
(792,-227,cs),
(792,-194,o),
(758,-148,o),
(743,-129,cs),
(578,69,o),
(475,410,o),
(475,750,cs),
(475,1066,o),
(548,1435,o),
(761,1653,cs),
(790,1684,o),
(800,1712,o),
(800,1737,cs),
(800,1770,o),
(785,1800,o),
(751,1830,cs),
(708,1871,o),
(676,1879,o),
(648,1879,cs),
(618,1879,o),
(585,1867,o),
(564,1847,cs),
(285,1556,o),
(164,1112,o),
(164,759,cs),
(164,377,o),
(289,-44,o),
(541,-326,cs),
(563,-349,o),
(598,-371,o),
(638,-371,cs)
);
}
);
width = 934;
},
{
background = {
shapes = (
{
closed = 1;
nodes = (
(578,-312,o),
(588,-309,o),
(621,-277,cs),
(651,-249,o),
(657,-235,o),
(657,-224,cs),
(657,-200,o),
(636,-178,o),
(623,-161,cs),
(445,60,o),
(340,424,o),
(340,784,cs),
(340,1118,o),
(413,1515,o),
(644,1758,cs),
(659,1775,o),
(665,1789,o),
(665,1803,cs),
(665,1821,o),
(655,1838,o),
(635,1856,cs),
(605,1885,o),
(591,1889,o),
(578,1889,cs),
(563,1889,o),
(549,1882,o),
(541,1874,cs),
(278,1590,o),
(159,1148,o),
(159,793,cs),
(159,410,o),
(281,-10,o),
(520,-286,cs),
(532,-299,o),
(548,-312,o),
(568,-312,cs)
);
}
);
};
layerId = m001;
shapes = (
{
closed = 1;
nodes = (
(578,-312,o),
(588,-309,o),
(621,-277,cs),
(651,-249,o),
(657,-235,o),
(657,-224,cs),
(657,-200,o),
(636,-178,o),
(623,-161,cs),
(445,60,o),
(340,424,o),
(340,784,cs),
(340,1118,o),
(413,1515,o),
(644,1758,cs),
(659,1775,o),
(665,1789,o),
(665,1803,cs),
(665,1821,o),
(655,1838,o),
(635,1856,cs),
(605,1885,o),
(591,1889,o),
(578,1889,cs),
(563,1889,o),
(549,1882,o),
(541,1874,cs),
(278,1590,o),
(159,1148,o),
(159,793,cs),
(159,410,o),
(281,-10,o),
(520,-286,cs),
(532,-299,o),
(548,-312,o),
(568,-312,cs)
);
}
);
width = 794;
},
{
background = {
shapes = (
{
closed = 1;
nodes = (
(614,-335,o),
(631,-330,o),
(668,-294,cs),
(705,-259,o),
(712,-241,o),
(712,-224,cs),
(712,-192,o),
(685,-163,o),
(672,-147,cs),
(498,70,o),
(395,428,o),
(395,784,cs),
(395,1115,o),
(467,1505,o),
(692,1742,cs),
(711,1763,o),
(720,1783,o),
(720,1803,cs),
(720,1828,o),
(706,1851,o),
(682,1873,cs),
(648,1906,o),
(627,1912,o),
(608,1912,cs),
(585,1912,o),
(565,1902,o),
(553,1890,cs),
(284,1600,o),
(164,1152,o),
(164,793,cs),
(164,406,o),
(287,-19,o),
(531,-301,cs),
(544,-315,o),
(568,-335,o),
(598,-335,cs)
);
}
);
};
layerId = m002;
shapes = (
{
closed = 1;
nodes = (
(614,-335,o),
(631,-330,o),
(668,-294,cs),
(705,-259,o),
(712,-241,o),
(712,-224,cs),
(712,-192,o),
(685,-163,o),
(672,-147,cs),
(498,70,o),
(395,428,o),
(395,784,cs),
(395,1115,o),
(467,1505,o),
(692,1742,cs),
(711,1763,o),
(720,1783,o),
(720,1803,cs),
(720,1828,o),
(706,1851,o),
(682,1873,cs),
(648,1906,o),
(627,1912,o),
(608,1912,cs),
(585,1912,o),
(565,1902,o),
(553,1890,cs),
(284,1600,o),
(164,1152,o),
(164,793,cs),
(164,406,o),
(287,-19,o),
(531,-301,cs),
(544,-315,o),
(568,-335,o),
(598,-335,cs)
);
}
);
width = 854;
}
);
unicode = 40;
userData = {
KernOnName = parenleft;
KernOnSpecialSpacing = {
R = parenthesis;
};
};
}
{
color = 6;
glyphname = hyphen;
layers = (
{
background = {
shapes = (
{
closed = 1;
nodes = (
(903,472,ls),
(955,472,o),
(999,508,o),
(999,554,cs),
(999,647,ls),
(999,693,o),
(955,730,o),
(903,730,cs),
(295,730,ls),
(244,730,o),
(200,693,o),
(200,647,cs),
(200,555,ls),
(200,508,o),
(244,472,o),
(295,472,cs)
);
}
);
};
hints = (
{
name = _corner.round;
origin = (0,3);
type = Corner;
},
{
name = _corner.round;
origin = (0,2);
scale = (-1,1);
type = Corner;
},
{
name = _corner.round;
origin = (0,0);
scale = (-1,1);
type = Corner;
},
{
name = _corner.round;
origin = (0,1);
type = Corner;
}
);
layerId = "997F8AB0-1B91-48A1-A6B5-F95345F1D981";
shapes = (
{
closed = 1;
nodes = (
(999,453,l),
(999,721,l),
(200,721,l),
(200,453,l)
);
}
);
width = 1199;
},
{
background = {
shapes = (
{
closed = 1;
nodes = (
(838,531,ls),
(855,531,o),
(869,542,o),
(869,556,cs),
(869,651,ls),
(869,665,o),
(856,677,o),
(838,677,cs),
(230,677,ls),
(213,677,o),
(200,665,o),
(200,652,cs),
(200,557,ls),
(200,543,o),
(213,531,o),
(230,531,cs)
);
}
);
};
hints = (
{
name = _corner.round;
origin = (0,3);
type = Corner;
},
{
name = _corner.round;
origin = (0,2);
scale = (-1,1);
type = Corner;
},
{
name = _corner.round;
origin = (0,0);
scale = (-1,1);
type = Corner;
},
{
name = _corner.round;
origin = (0,1);
type = Corner;
}
);
layerId = m001;
shapes = (
{
closed = 1;
nodes = (
(869,525,l),
(869,683,l),
(200,683,l),
(200,525,l)
);
}
);
width = 1069;
},
{
background = {
shapes = (
{
closed = 1;
nodes = (
(863,508,ls),
(894,508,o),
(919,530,o),
(919,556,cs),
(919,651,ls),
(919,678,o),
(894,700,o),
(863,700,cs),
(255,700,ls),
(225,700,o),
(200,678,o),
(200,652,cs),
(200,557,ls),
(200,530,o),
(225,508,o),
(255,508,cs)
);
}
);
};
hints = (
{
name = _corner.round;
origin = (0,3);
type = Corner;
},
{
name = _corner.round;
origin = (0,2);
scale = (-1,1);
type = Corner;
},
{
name = _corner.round;
origin = (0,0);
scale = (-1,1);
type = Corner;
},
{
name = _corner.round;
origin = (0,1);
type = Corner;
}
);
layerId = m002;
shapes = (
{
closed = 1;
nodes = (
(919,498,l),
(919,710,l),
(200,710,l),
(200,498,l)
);
}
);
width = 1119;
}
);
unicode = 45;
userData = {
KernOnName = hyphen;
KernOnSpecialSpacing = {
L = hyphen;
R = hyphen;
};
};
}
{
color = 6;
glyphname = slash;
layers = (
{
layerId = "997F8AB0-1B91-48A1-A6B5-F95345F1D981";
shapes = (
{
closed = 1;
nodes = (
(376,-166,o),
(418,-142,o),
(429,-99,cs),
(855,1478,ls),
(857,1487,o),
(858,1494,o),
(858,1500,cs),
(858,1544,o),
(828,1580,o),
(778,1591,cs),
(693,1608,ls),
(687,1609,o),
(677,1610,o),
(670,1610,cs),
(624,1610,o),
(582,1586,o),
(571,1542,cs),
(155,-16,ls),
(152,-26,o),
(150,-36,o),
(150,-48,cs),
(150,-93,o),
(177,-129,o),
(226,-142,cs),
(290,-159,ls),
(306,-163,o),
(324,-166,o),
(333,-166,cs)
);
}
);
width = 933;
},
{
background = {
shapes = (
{
closed = 1;
nodes = (
(288,-105,o),
(288,-105,o),
(293,-105,cs),
(307,-105,o),
(318,-98,o),
(322,-82,cs),
(747,1541,l),
(747,1544,o),
(748,1549,o),
(748,1552,cs),
(748,1570,o),
(740,1581,o),
(724,1585,cs),
(639,1603,l),
(637,1603,o),
(635,1603,o),
(630,1603,cs),
(613,1603,o),
(602,1597,o),
(598,1580,cs),
(182,-29,ls),
(181,-32,o),
(180,-38,o),
(180,-46,cs),
(180,-64,o),
(187,-78,o),
(204,-82,cs),
(286,-104,l)
);
}
);
};
layerId = m001;
shapes = (
{
closed = 1;
nodes = (
(277,-130,o),
(286,-123,o),
(290,-108,cs),
(742,1568,l),
(742,1571,o),
(743,1576,o),
(743,1579,cs),
(743,1597,o),
(736,1607,o),
(722,1610,cs),
(655,1624,ls),
(638,1628,o),
(629,1629,o),
(623,1629,cs),
(608,1629,o),
(599,1624,o),
(595,1609,cs),
(152,-55,ls),
(151,-59,o),
(150,-64,o),
(150,-72,cs),
(150,-91,o),
(158,-103,o),
(170,-106,cs),
(244,-127,ls),
(253,-130,o),
(260,-130,o),
(264,-130,cs)
);
}
);
width = 818;
},
{
layerId = m002;
shapes = (
{
closed = 1;
nodes = (
(319,-130,o),
(344,-116,o),
(351,-88,cs),
(776,1536,ls),
(777,1541,o),
(778,1547,o),
(778,1552,cs),
(778,1579,o),
(762,1602,o),
(730,1609,cs),
(645,1627,ls),
(640,1628,o),
(635,1628,o),
(630,1628,cs),
(602,1628,o),
(576,1615,o),
(569,1586,cs),
(153,-22,ls),
(151,-29,o),
(150,-37,o),
(150,-46,cs),
(150,-71,o),
(161,-97,o),
(196,-106,cs),
(260,-124,ls),
(272,-127,o),
(287,-130,o),
(293,-130,cs)
);
}
);
width = 853;
}
);
unicode = 47;
userData = {
KernOnName = slash;
KernOnSpecialSpacing = {
L = slash;
R = slash;
};
};
}
{
color = 6;
glyphname = nine;
layers = (
{
layerId = "997F8AB0-1B91-48A1-A6B5-F95345F1D981";
shapes = (
{
closed = 1;
nodes = (
(982,-265,o),
(1107,185,o),
(1107,509,cs),
(1107,931,o),
(968,1224,o),
(568,1224,cs),
(274,1224,o),
(31,1030,o),
(31,745,cs),
(31,441,o),
(247,255,o),
(510,255,cs),
(596,255,o),
(703,275,o),
(786,312,c),
(761,144,o),
(675,13,o),
(492,13,cs),
(419,13,o),
(342,40,o),
(279,84,cs),
(250,104,o),
(228,110,o),
(207,110,cs),
(180,110,o),
(151,98,o),
(125,61,cs),
(80,-3,ls),
(68,-20,o),
(61,-37,o),
(61,-55,cs),
(61,-90,o),
(85,-119,o),
(129,-149,cs),
(208,-203,o),
(353,-265,o),
(488,-265,cs)
);
},
{
closed = 1;
nodes = (
(416,523,o),
(343,610,o),
(343,742,cs),
(343,869,o),
(434,951,o),
(554,951,cs),
(712,951,o),
(784,819,o),
(787,582,c),
(726,540,o),
(642,523,o),
(565,523,cs)
);
}
);
width = 1194;
},
{
background = {
shapes = (
{
closed = 1;
nodes = (
(88,470,o),
(277,301,o),
(508,301,cs),
(645,301,o),
(824,354,o),
(873,442,c),
(879,178,o),
(784,-75,o),
(489,-75,cs),
(413,-75,o),
(305,-46,o),
(232,1,cs),
(211,15,o),
(201,19,o),
(196,19,cs),
(193,19,o),
(186,15,o),
(172,-6,cs),
(124,-74,ls),
(120,-80,o),
(119,-86,o),
(119,-91,cs),
(119,-106,o),
(134,-122,o),
(156,-138,cs),
(234,-193,o),
(362,-240,o),
(485,-240,cs),
(935,-240,o),
(1049,179,o),
(1049,506,cs),
(1049,929,o),
(926,1199,o),
(567,1199,cs),
(303,1199,o),
(88,1020,o),
(88,755,cs)
);
},
{
closed = 1;
nodes = (
(264,922,o),
(389,1038,o),
(553,1038,cs),
(776,1038,o),
(867,848,o),
(865,554,c),
(788,484,o),
(668,456,o),
(564,456,cs),
(367,456,o),
(264,581,o),
(264,752,cs)
);
}
);
};
layerId = m001;
shapes = (
{
closed = 1;
nodes = (
(927,-265,o),
(1044,170,o),
(1044,511,cs),
(1044,951,o),
(918,1231,o),
(549,1231,cs),
(279,1231,o),
(58,1046,o),
(58,771,cs),
(58,475,o),
(252,300,o),
(489,300,cs),
(631,300,o),
(820,357,o),
(868,453,c),
(876,172,o),
(778,-100,o),
(469,-100,cs),
(389,-100,o),
(277,-69,o),
(203,-20,cs),
(180,-5,o),
(171,-1,o),
(167,-1,cs),
(165,-1,o),
(159,-4,o),
(144,-26,cs),
(95,-97,ls),
(91,-103,o),
(90,-108,o),
(90,-113,cs),
(90,-127,o),
(104,-143,o),
(128,-160,cs),
(208,-217,o),
(339,-265,o),
(465,-265,cs)
);
},
{
closed = 1;
nodes = (
(342,455,o),
(234,587,o),
(234,767,cs),
(234,947,o),
(364,1070,o),
(535,1070,cs),
(768,1070,o),
(862,868,o),
(860,559,c),
(779,484,o),
(654,455,o),
(546,455,cs)
);
}
);
width = 1158;
},
{
layerId = m002;
shapes = (
{
closed = 1;
nodes = (
(960,-265,o),
(1079,174,o),
(1079,506,cs),
(1079,937,o),
(949,1224,o),
(567,1224,cs),
(287,1224,o),
(58,1034,o),
(58,755,cs),
(58,456,o),
(260,276,o),
(508,276,cs),
(620,276,o),
(762,311,o),
(842,370,c),
(830,141,o),
(734,-50,o),
(489,-50,cs),
(418,-50,o),
(318,-23,o),
(248,22,cs),
(227,36,o),
(210,44,o),
(196,44,cs),
(179,44,o),
(164,33,o),
(147,8,cs),
(100,-60,ls),
(92,-71,o),
(89,-82,o),
(89,-91,cs),
(89,-116,o),
(111,-138,o),
(139,-158,cs),
(218,-214,o),
(355,-265,o),
(485,-265,cs)
);
},
{
closed = 1;
nodes = (
(385,481,o),
(294,594,o),
(294,752,cs),
(294,909,o),
(406,1013,o),
(553,1013,cs),
(752,1013,o),
(835,842,o),
(835,564,c),
(763,505,o),
(658,481,o),
(564,481,cs)
);
}
);
width = 1193;
}
);
unicode = 57;
userData = {
KernOnSpecialSpacing = {
L = number;
R = number;
};
};
}
{
color = 6;
glyphname = K;
layers = (
{
anchors = (
{
name = bottom;
pos = (713,0);
},
{
name = top;
pos = (713,1533);
}
);
background = {
hints = (
{
name = _corner.round;
origin = (1,0);
scale = (-1,1);
type = Corner;
},
{
name = _corner.round;
origin = (1,1);
type = Corner;
},
{
name = _corner.round;
origin = (1,2);
scale = (-1,1);
type = Corner;
},
{
name = _corner.round;
origin = (1,3);
type = Corner;
}
);
shapes = (
{
closed = 1;
nodes = (
(1435,-16,o),
(1545,28,o),
(1545,104,cs),
(1545,145,o),
(1531,191,o),
(1521,226,cs),
(1509,268,o),
(1496,278,o),
(1451,278,cs),
(1439,278,o),
(1413,276,o),
(1395,276,cs),
(1370,276,o),
(1354,278,o),
(1329,290,cs),
(1269,319,o),
(1195,393,o),
(1124,475,cs),
(1033,580,o),
(953,704,o),
(904,772,c),
(1006,919,o),
(1240,1163,o),
(1363,1267,cs),
(1390,1290,o),
(1439,1332,o),
(1445,1378,cs),
(1449,1409,o),
(1439,1430,o),
(1406,1464,cs),
(1381,1490,ls),
(1346,1526,o),
(1314,1538,o),
(1284,1539,cs),
(1236,1541,o),
(1191,1513,o),
(1159,1488,cs),
(1080,1426,o),
(960,1304,o),
(874,1196,cs),
(755,1046,o),
(640,870,o),
(573,744,c),
(671,579,o),
(770,424,o),
(883,283,cs),
(984,157,o),
(1136,-16,o),
(1338,-16,cs)
);
},
{
closed = 1;
nodes = (
(533,0,l),
(533,1533,l),
(199,1533,l),
(199,0,l)
);
}
);
};
hints = (
{
name = _corner.round;
origin = (1,1);
type = Corner;
},
{
name = _corner.round;
origin = (1,2);
scale = (-1,1);
type = Corner;
},
{
name = _corner.round;
origin = (1,0);
scale = (-1,1);
type = Corner;
},
{
name = _corner.round;
origin = (1,3);
type = Corner;
}
);
layerId = "997F8AB0-1B91-48A1-A6B5-F95345F1D981";
shapes = (
{
closed = 1;
nodes = (
(1435,-16,o),
(1545,28,o),
(1545,104,cs),
(1545,145,o),
(1531,191,o),
(1518,238,cs),
(1511,263,o),
(1491,275,o),
(1472,275,cs),
(1451,275,o),
(1434,265,o),
(1410,265,cs),
(1375,265,o),
(1354,272,o),
(1329,286,cs),
(1272,318,o),
(1195,393,o),
(1124,475,cs),
(1033,580,o),
(953,704,o),
(904,772,c),
(1006,919,o),
(1240,1163,o),
(1363,1267,cs),
(1390,1290,o),
(1439,1332,o),
(1445,1378,cs),
(1449,1409,o),
(1439,1430,o),
(1406,1464,cs),
(1381,1490,ls),
(1346,1526,o),
(1314,1538,o),
(1284,1539,cs),
(1236,1541,o),
(1191,1513,o),
(1159,1488,cs),
(1080,1426,o),
(960,1304,o),
(874,1196,cs),
(755,1046,o),
(640,870,o),
(573,744,c),
(671,579,o),
(770,424,o),
(883,283,cs),
(984,157,o),
(1136,-16,o),
(1338,-16,cs)
);
},
{
closed = 1;
nodes = (
(533,0,l),
(533,1533,l),
(199,1533,l),
(199,0,l)
);
}
);
width = 1570;
},
{
anchors = (
{
name = bottom;
pos = (670,0);
},
{
name = top;
pos = (670,1533);
}
);
guides = (
{
angle = 90;
pos = (3229,0);
}
);
hints = (
{
name = _corner.round;
origin = (1,1);
type = Corner;
},
{
name = _corner.round;
origin = (1,2);
scale = (-1,1);
type = Corner;
},
{
name = _corner.round;
origin = (1,3);
type = Corner;
},
{
name = _corner.round;
origin = (1,0);
scale = (-1,1);
type = Corner;
}
);
layerId = m001;
shapes = (
{
closed = 1;
nodes = (
(1323,-18,o),
(1372,13,o),
(1372,49,cs),
(1372,72,o),
(1363,111,o),
(1353,137,cs),
(1350,145,o),
(1338,156,o),
(1323,156,cs),
(1308,156,o),
(1287,149,o),
(1266,149,cs),
(1230,149,o),
(1209,152,o),
(1177,170,cs),
(1105,211,o),
(1018,318,o),
(957,393,cs),
(892,473,o),
(808,589,o),
(697,753,c),
(779,886,o),
(1013,1169,o),
(1115,1279,cs),
(1226,1399,o),
(1266,1417,o),
(1266,1451,cs),
(1266,1464,o),
(1259,1473,o),
(1246,1487,cs),
(1221,1514,ls),
(1202,1535,o),
(1177,1538,o),
(1166,1538,cs),
(1139,1538,o),
(1126,1535,o),
(1095,1506,cs),
(1007,1423,o),
(907,1312,o),
(816,1193,cs),
(730,1080,o),
(567,865,o),
(497,742,c),
(597,576,o),
(696,430,o),
(819,276,cs),
(925,143,o),
(1060,-18,o),
(1230,-18,cs)
);
},
{
closed = 1;
nodes = (
(408,0,l),
(408,1533,l),
(216,1533,l),
(216,0,l)
);
}
);
width = 1353;
},
{
anchors = (
{
name = bottom;
pos = (684,0);
},
{
name = top;
pos = (684,1533);
}
);
guides = (
{
angle = 90;
pos = (3266,0);
}
);
hints = (
{
name = _corner.round;
origin = (1,0);
scale = (-1,1);
type = Corner;
},
{
name = _corner.round;
origin = (1,1);
type = Corner;
},
{
name = _corner.round;
origin = (1,2);
scale = (-1,1);
type = Corner;
},
{
name = _corner.round;
origin = (1,3);
type = Corner;
}
);
layerId = m002;
shapes = (
{
closed = 1;
nodes = (
(1299,-17,o),
(1389,24,o),
(1389,81,cs),
(1389,121,o),
(1379,144,o),
(1371,175,cs),
(1362,208,o),
(1341,214,o),
(1316,214,cs),
(1303,214,o),
(1289,212,o),
(1276,212,cs),
(1249,212,o),
(1224,217,o),
(1198,231,cs),
(1134,265,o),
(1057,347,o),
(987,434,cs),
(887,558,o),
(795,699,o),
(756,758,c),
(845,903,o),
(1075,1173,o),
(1207,1301,cs),
(1249,1343,o),
(1303,1374,o),
(1306,1413,cs),
(1308,1433,o),
(1295,1456,o),
(1259,1483,cs),
(1226,1508,ls),
(1199,1529,o),
(1171,1539,o),
(1149,1539,cs),
(1123,1539,o),
(1098,1525,o),
(1068,1499,cs),
(984,1427,o),
(896,1321,o),
(807,1202,cs),
(693,1049,o),
(586,875,o),
(518,743,c),
(609,580,o),
(702,421,o),
(810,279,cs),
(910,148,o),
(1048,-17,o),
(1224,-17,cs)
);
},
{
closed = 1;
nodes = (
(474,0,l),
(474,1533,l),
(223,1533,l),
(223,0,l)
);
}
);
width = 1371;
}
);
metricLeft = H;
unicode = 75;
userData = {
KernOnName = K;
KernOnSpecialSpacing = {
R = diagonal;
};
};
}
{
color = 6;
glyphname = Q;
layers = (
{
anchors = (
{
name = bottom;
pos = (861,0);
},
{
name = top;
pos = (861,1533);
}
);
background = {
shapes = (
{
closed = 1;
nodes = (
(1091,6,l),
(1429,103,o),
(1647,410,o),
(1647,776,cs),
(1647,1215,o),
(1373,1558,o),
(869,1558,cs),
(403,1558,o),
(88,1227,o),
(88,778,cs),
(88,347,o),
(376,-25,o),
(861,-25,c)
);
},
{
closed = 1;
nodes = (
(1622,-308,o),
(1683,-282,o),
(1705,-183,cs),
(1717,-129,o),
(1718,-114,o),
(1718,-71,cs),
(1718,-26,o),
(1688,-2,o),
(1643,-2,cs),
(1591,-2,o),
(1526,-22,o),
(1381,-22,cs),
(1241,-22,o),
(1071,26,o),
(959,125,c),
(656,99,l),
(848,-211,o),
(1299,-308,o),
(1520,-308,cs)
);
},
{
closed = 1;
nodes = (
(565,268,o),
(436,517,o),
(436,777,cs),
(436,1068,o),
(599,1265,o),
(867,1265,cs),
(1157,1265,o),
(1299,1040,o),
(1299,777,cs),
(1299,497,o),
(1163,268,o),
(866,268,cs)
);
}
);
};
layerId = "997F8AB0-1B91-48A1-A6B5-F95345F1D981";
shapes = (
{
closed = 1;
nodes = (
(1091,6,l),
(1429,103,o),
(1647,410,o),
(1647,776,cs),
(1647,1215,o),
(1373,1558,o),
(869,1558,cs),
(403,1558,o),
(88,1227,o),
(88,778,cs),
(88,347,o),
(376,-25,o),
(861,-25,c)
);
},
{
closed = 1;
nodes = (
(1622,-308,o),
(1683,-282,o),
(1705,-183,cs),
(1717,-129,o),
(1718,-114,o),
(1718,-71,cs),
(1718,-26,o),
(1688,-2,o),
(1643,-2,cs),
(1591,-2,o),
(1526,-22,o),
(1381,-22,cs),
(1241,-22,o),
(1071,26,o),
(959,125,c),
(656,99,l),
(848,-211,o),
(1299,-308,o),
(1520,-308,cs)
);
},
{
closed = 1;
nodes = (
(565,268,o),
(436,517,o),
(436,777,cs),
(436,1068,o),
(599,1265,o),
(867,1265,cs),
(1157,1265,o),
(1299,1040,o),
(1299,777,cs),
(1299,497,o),
(1163,268,o),
(866,268,cs)
);
}
);
width = 1722;
},
{
anchors = (
{
name = bottom;
pos = (822,0);
},
{
name = top;
pos = (822,1533);
}
);
background = {
shapes = (
{
closed = 1;
nodes = (
(893,29,l),
(1327,65,o),
(1530,404,o),
(1530,794,cs),
(1530,1230,o),
(1285,1558,o),
(826,1558,cs),
(403,1558,o),
(119,1240,o),
(119,796,cs),
(119,371,o),
(379,9,o),
(818,9,c)
);
},
{
closed = 1;
nodes = (
(1551,-313,o),
(1584,-299,o),
(1596,-241,cs),
(1603,-205,o),
(1606,-183,o),
(1606,-168,cs),
(1606,-145,o),
(1593,-130,o),
(1568,-130,cs),
(1508,-130,o),
(1473,-145,o),
(1368,-145,cs),
(1186,-145,o),
(1017,-84,o),
(904,39,c),
(720,20,l),
(880,-223,o),
(1169,-313,o),
(1463,-313,cs)
);
},
{
closed = 1;
nodes = (
(476,164,o),
(322,473,o),
(322,795,cs),
(322,1142,o),
(512,1393,o),
(824,1393,cs),
(1160,1393,o),
(1327,1110,o),
(1327,795,cs),
(1327,451,o),
(1169,164,o),
(823,164,cs)
);
}
);
};
layerId = m001;
shapes = (
{
closed = 1;
nodes = (
(893,-2,l),
(1292,37,o),
(1542,367,o),
(1542,777,cs),
(1542,1242,o),
(1292,1558,o),
(826,1558,cs),
(396,1558,o),
(107,1230,o),
(107,779,cs),
(107,347,o),
(371,-25,o),
(818,-25,c)
);
},
{
closed = 1;
nodes = (
(1551,-313,o),
(1584,-299,o),
(1596,-241,cs),
(1603,-205,o),
(1606,-183,o),
(1606,-168,cs),
(1606,-145,o),
(1593,-130,o),
(1568,-130,cs),
(1508,-130,o),
(1473,-145,o),
(1368,-145,cs),
(1186,-145,o),
(1017,-84,o),
(904,39,c),
(720,20,l),
(880,-223,o),
(1169,-313,o),
(1463,-313,cs)
);
},
{
closed = 1;
nodes = (
(476,141,o),
(307,433,o),
(307,779,cs),
(307,1160,o),
(514,1392,o),
(824,1392,cs),
(1160,1392,o),
(1342,1127,o),
(1342,779,cs),
(1342,410,o),
(1166,141,o),
(823,141,cs)
);
}
);
width = 1643;
},
{
anchors = (
{
name = bottom;
pos = (852,0);
},
{
name = top;
pos = (852,1533);
}
);
background = {
shapes = (
{
closed = 1;
nodes = (
(981,6,l),
(1374,48,o),
(1594,381,o),
(1594,777,cs),
(1594,1219,o),
(1336,1558,o),
(856,1558,cs),
(413,1558,o),
(115,1230,o),
(115,779,cs),
(115,347,o),
(387,-25,o),
(848,-25,c)
);
},
{
closed = 1;
nodes = (
(1604,-313,o),
(1643,-293,o),
(1660,-211,cs),
(1671,-160,o),
(1672,-147,o),
(1672,-136,cs),
(1672,-98,o),
(1656,-69,o),
(1611,-69,cs),
(1523,-69,o),
(1449,-93,o),
(1352,-85,cs),
(1205,-73,o),
(1058,-22,o),
(936,63,c),
(710,44,l),
(915,-248,o),
(1307,-313,o),
(1513,-313,cs)
);
},
{
closed = 1;
nodes = (
(529,195,o),
(386,477,o),
(386,778,cs),
(386,1102,o),
(564,1329,o),
(854,1329,cs),
(1167,1329,o),
(1323,1072,o),
(1323,778,cs),
(1323,456,o),
(1176,195,o),
(853,195,cs)
);
}
);
};
layerId = m002;
shapes = (
{
closed = 1;
nodes = (
(985,7,l),
(1351,52,o),
(1594,378,o),
(1594,777,cs),
(1594,1219,o),
(1336,1558,o),
(856,1558,cs),
(413,1558,o),
(115,1230,o),
(115,779,cs),
(115,347,o),
(387,-25,o),
(848,-25,c)
);
},
{
closed = 1;
nodes = (
(1604,-313,o),
(1643,-293,o),
(1660,-211,cs),
(1671,-160,o),
(1672,-147,o),
(1672,-136,cs),
(1672,-98,o),
(1656,-69,o),
(1611,-69,cs),
(1523,-69,o),
(1449,-93,o),
(1352,-85,cs),
(1205,-73,o),
(1058,-22,o),
(936,63,c),
(710,44,l),
(915,-248,o),
(1307,-313,o),
(1513,-313,cs)
);
},
{
closed = 1;
nodes = (
(526,205,o),
(383,487,o),
(383,778,cs),
(383,1102,o),
(561,1329,o),
(854,1329,cs),
(1170,1329,o),
(1326,1072,o),
(1326,778,cs),
(1326,466,o),
(1176,205,o),
(853,205,cs)
);
}
);
width = 1703;
}
);
unicode = 81;
}
{
color = 6;
glyphname = R;
layers = (
{
anchors = (
{
name = bottom;
pos = (776,0);
},
{
name = top;
pos = (776,1533);
}
);
background = {
hints = (
{
name = _corner.round;
scale = (-1,1);
type = Corner;
},
{
name = _corner.round;
type = Corner;
},
{
name = _corner.round;
scale = (-1,1);
type = Corner;
},
{
name = _corner.round;
scale = (-1,1);
type = Corner;
},
{
name = _corner.round;
type = Corner;
},
{
name = _corner.round;
scale = (-1,1);
type = Corner;
},
{
name = _corner.round;
origin = (0,27);
scale = (-1,1);
type = Corner;
},
{
name = _corner.round;
origin = (0,28);
type = Corner;
},
{
name = _corner.round;
origin = (0,29);
scale = (-1,1);
type = Corner;
}
);
shapes = (
{
closed = 1;
nodes = (
(1316,-17,o),
(1425,35,o),
(1425,120,cs),
(1425,142,o),
(1416,201,o),
(1402,240,cs),
(1389,276,o),
(1371,293,o),
(1339,293,cs),
(1306,293,o),
(1276,278,o),
(1232,278,cs),
(1126,278,o),
(1038,339,o),
(948,433,cs),
(915,468,o),
(885,513,o),
(851,554,c),
(895,554,o),
(981,567,o),
(1069,594,cs),
(1188,631,o),
(1390,779,o),
(1390,1064,cs),
(1390,1389,o),
(1130,1533,o),
(760,1533,cs),
(199,1533,l),
(199,0,l),
(518,0,l),
(518,560,l),
(555,488,o),
(589,431,o),
(629,372,cs),
(685,289,o),
(750,211,o),
(845,129,cs),
(949,39,o),
(1055,-17,o),
(1190,-17,cs)
);
},
{
closed = 1;
nodes = (
(646,775,o),
(582,782,o),
(518,793,c),
(518,1257,l),
(753,1257,ls),
(919,1257,o),
(1060,1201,o),
(1060,1034,cs),
(1060,851,o),
(891,775,o),
(704,775,cs)
);
}
);
};
hints = (
{
name = _corner.round;
origin = (0,27);
scale = (-1,1);
type = Corner;
},
{
name = _corner.round;
origin = (0,28);
type = Corner;
},
{
name = _corner.round;
origin = (0,29);
scale = (-1,1);
type = Corner;
}
);
layerId = "997F8AB0-1B91-48A1-A6B5-F95345F1D981";
shapes = (
{
closed = 1;
nodes = (
(1316,-17,o),
(1425,35,o),
(1425,120,cs),
(1425,142,o),
(1416,201,o),
(1402,240,cs),
(1389,276,o),
(1371,293,o),
(1339,293,cs),
(1306,293,o),
(1276,278,o),
(1232,278,cs),
(1126,278,o),
(1040,325,o),
(939,434,cs),
(906,469,o),
(875,507,o),
(841,566,c),
(890,566,o),
(981,579,o),
(1069,606,cs),
(1188,643,o),
(1390,779,o),
(1390,1064,cs),
(1390,1389,o),
(1130,1533,o),
(760,1533,cs),
(199,1533,l),
(199,0,l),
(514,0,l),
(514,572,l),
(559,490,o),
(596,431,o),
(636,372,cs),
(692,289,o),
(750,217,o),
(837,139,cs),
(940,47,o),
(1055,-17,o),
(1190,-17,cs)
);
},
{
closed = 1;
nodes = (
(646,775,o),
(582,782,o),
(514,793,c),
(514,1257,l),
(753,1257,ls),
(919,1257,o),
(1060,1201,o),
(1060,1034,cs),
(1060,851,o),
(891,775,o),
(704,775,cs)
);
}
);
width = 1541;
},
{
anchors = (
{
name = bottom;
pos = (718,0);
},
{
name = top;
pos = (740,1533);
}
);
background = {
hints = (
{
name = _corner.round;
scale = (-1,1);
type = Corner;
},
{
name = _corner.round;
type = Corner;
},
{
name = _corner.round;
scale = (-1,1);
type = Corner;
},
{
name = _corner.round;
origin = (0,27);
scale = (-1,1);
type = Corner;
},
{
name = _corner.round;
origin = (0,28);
type = Corner;
},
{
name = _corner.round;
origin = (0,29);
scale = (-1,1);
type = Corner;
}
);
shapes = (
{
closed = 1;
nodes = (
(1254,-17,o),
(1348,26,o),
(1348,67,cs),
(1348,79,o),
(1342,100,o),
(1337,118,cs),
(1328,149,o),
(1323,164,o),
(1294,164,cs),
(1278,164,o),
(1249,149,o),
(1205,149,cs),
(1055,149,o),
(935,255,o),
(803,399,cs),
(726,483,o),
(687,527,o),
(630,598,c),
(655,596,o),
(691,594,o),
(717,594,cs),
(1054,594,o),
(1265,786,o),
(1265,1078,cs),
(1265,1407,o),
(1044,1533,o),
(686,1533,cs),
(216,1533,l),
(216,0,l),
(398,0,l),
(398,622,l),
(436,584,o),
(495,515,o),
(548,447,cs),
(611,366,o),
(684,275,o),
(766,192,cs),
(892,64,o),
(1003,-17,o),
(1175,-17,cs)
);
},
{
closed = 1;
nodes = (
(539,725,o),
(430,735,o),
(398,748,c),
(398,1381,l),
(679,1381,ls),
(882,1381,o),
(1083,1304,o),
(1083,1063,cs),
(1083,812,o),
(855,725,o),
(668,725,cs)
);
}
);
};
guides = (
{
angle = 90;
pos = (435,0);
},
{
angle = 90;
pos = (713,0);
}
);
hints = (
{
name = _corner.round;
origin = (0,27);
scale = (-1,1);
type = Corner;
},
{
name = _corner.round;
origin = (0,28);
type = Corner;
},
{
name = _corner.round;
origin = (0,29);
scale = (-1,1);
type = Corner;
}
);
layerId = m001;
shapes = (
{
closed = 1;
nodes = (
(1260,-17,o),
(1350,25,o),
(1350,65,cs),
(1350,77,o),
(1338,121,o),
(1325,156,cs),
(1319,173,o),
(1311,181,o),
(1293,181,cs),
(1270,181,o),
(1243,159,o),
(1183,159,cs),
(1041,159,o),
(935,255,o),
(803,399,cs),
(726,483,o),
(687,527,o),
(630,598,c),
(655,596,o),
(691,594,o),
(717,594,cs),
(1054,594,o),
(1265,786,o),
(1265,1078,cs),
(1265,1407,o),
(1044,1533,o),
(686,1533,cs),
(216,1533,l),
(216,0,l),
(398,0,l),
(398,622,l),
(436,584,o),
(495,515,o),
(548,447,cs),
(611,366,o),
(684,275,o),
(766,192,cs),
(892,64,o),
(1003,-17,o),
(1175,-17,cs)
);
},
{
closed = 1;
nodes = (
(539,725,o),
(430,735,o),
(398,748,c),
(398,1381,l),
(679,1381,ls),
(882,1381,o),
(1083,1304,o),
(1083,1063,cs),
(1083,812,o),
(855,725,o),
(668,725,cs)
);
}
);
width = 1405;
},
{
anchors = (
{
name = bottom;
pos = (760,0);
},
{
name = top;
pos = (760,1533);
}
);
background = {
hints = (
{
name = _corner.round;
origin = (0,27);
scale = (-1,1);
type = Corner;
},
{
name = _corner.round;
origin = (0,28);
type = Corner;
},
{
name = _corner.round;
origin = (0,29);
scale = (-1,1);
type = Corner;
}
);
shapes = (
{
closed = 1;
nodes = (
(1308,-17,o),
(1423,35,o),
(1423,98,cs),
(1423,119,o),
(1415,142,o),
(1408,168,cs),
(1400,199,o),
(1388,229,o),
(1351,229,cs),
(1330,229,o),
(1278,215,o),
(1248,215,cs),
(1110,215,o),
(1007,305,o),
(881,436,cs),
(840,479,o),
(797,523,o),
(758,566,c),
(784,562,o),
(801,561,o),
(827,561,cs),
(1087,561,o),
(1343,763,o),
(1343,1063,cs),
(1343,1402,o),
(1106,1533,o),
(748,1533,cs),
(223,1533,l),
(223,0,l),
(472,0,l),
(472,576,l),
(512,540,o),
(562,474,o),
(622,399,cs),
(674,333,o),
(734,260,o),
(803,193,cs),
(926,73,o),
(1039,-17,o),
(1219,-17,cs)
);
},
{
closed = 1;
nodes = (
(619,741,o),
(535,752,o),
(472,767,c),
(472,1315,l),
(741,1315,ls),
(924,1315,o),
(1092,1251,o),
(1092,1049,cs),
(1092,826,o),
(895,741,o),
(692,741,cs)
);
}
);
};
guides = (
{
angle = 90;
pos = (474,0);
},
{
angle = 90;
pos = (752,0);
}
);
hints = (
{
name = _corner.round;
origin = (0,28);
type = Corner;
},
{
name = _corner.round;
origin = (0,29);
scale = (-1,1);
type = Corner;
},
{
name = _corner.round;
origin = (0,27);
scale = (-1,1);
type = Corner;
}
);
layerId = m002;
shapes = (
{
closed = 1;
nodes = (
(1308,-17,o),
(1423,35,o),
(1423,98,cs),
(1423,119,o),
(1415,142,o),
(1408,168,cs),
(1400,199,o),
(1388,229,o),
(1351,229,cs),
(1330,229,o),
(1278,215,o),
(1248,215,cs),
(1110,215,o),
(1007,305,o),
(881,436,cs),
(840,479,o),
(797,523,o),
(758,566,c),
(784,562,o),
(801,561,o),
(827,561,cs),
(1087,561,o),
(1343,763,o),
(1343,1063,cs),
(1343,1402,o),
(1106,1533,o),
(748,1533,cs),
(223,1533,l),
(223,0,l),
(472,0,l),
(472,576,l),
(512,540,o),
(562,474,o),
(622,399,cs),
(674,333,o),
(734,260,o),
(803,193,cs),
(926,73,o),
(1039,-17,o),
(1219,-17,cs)
);
},
{
closed = 1;
nodes = (
(619,741,o),
(535,752,o),
(472,767,c),
(472,1315,l),
(741,1315,ls),
(924,1315,o),
(1092,1251,o),
(1092,1049,cs),
(1092,826,o),
(895,741,o),
(692,741,cs)
);
}
);
width = 1522;
}
);
metricLeft = H;
unicode = 82;
userData = {
KernOnName = R;
KernOnSpecialSpacing = {
R = diagonal;
};
};
}
{
color = 6;
glyphname = g;
layers = (
{
anchors = (
{
name = bottom;
pos = (587,-568);
},
{
name = top;
pos = (515,1128);
}
);
background = {
shapes = (
{
closed = 1;
nodes = (
(873,-568,o),
(1162,-439,o),
(1162,-177,cs),
(1162,82,o),
(898,172,o),
(661,172,cs),
(610,172,o),
(533,160,o),
(467,126,c),
(486,99,l),
(577,165,o),
(661,228,o),
(715,263,cs),
(855,354,o),
(1072,486,o),
(1072,717,cs),
(1072,734,o),
(1069,758,o),
(1067,820,c),
(1028,711,l),
(1116,831,o),
(1143,971,o),
(1143,1078,cs),
(1143,1172,o),
(1132,1337,o),
(1025,1337,cs),
(942,1337,ls),
(912,1337,o),
(850,1319,o),
(850,1249,cs),
(850,1229,o),
(856,1201,o),
(865,1161,cs),
(874,1122,o),
(881,1084,o),
(892,1020,c),
(828,1110,o),
(705,1154,o),
(571,1154,cs),
(331,1154,o),
(84,1000,o),
(84,721,cs),
(84,476,o),
(299,339,o),
(500,307,c),
(521,364,l),
(342,270,o),
(80,57,o),
(80,-190,cs),
(80,-441,o),
(336,-568,o),
(612,-568,cs)
);
},
{
closed = 1;
nodes = (
(485,-310,o),
(364,-263,o),
(364,-159,cs),
(364,-138,o),
(369,-115,o),
(390,-90,c),
(441,-50,o),
(562,-47,o),
(605,-47,cs),
(714,-47,o),
(858,-76,o),
(858,-186,cs),
(858,-262,o),
(742,-310,o),
(612,-310,cs)
);
},
{
closed = 1;
nodes = (
(465,545,o),
(377,615,o),
(377,724,cs),
(377,836,o),
(470,893,o),
(578,893,cs),
(682,893,o),
(786,840,o),
(786,724,cs),
(786,615,o),
(697,545,o),
(587,545,cs)
);
}
);
};
layerId = "997F8AB0-1B91-48A1-A6B5-F95345F1D981";
shapes = (
{
closed = 1;
nodes = (
(873,-568,o),
(1162,-439,o),
(1162,-177,cs),
(1162,82,o),
(898,172,o),
(661,172,cs),
(610,172,o),
(523,156,o),
(457,122,c),
(466,105,l),
(555,171,o),
(647,237,o),
(758,298,cs),
(908,381,o),
(1072,518,o),
(1072,717,cs),
(1072,734,o),
(1069,758,o),
(1067,820,c),
(1028,711,l),
(1116,831,o),
(1143,971,o),
(1143,1078,cs),
(1143,1172,o),
(1132,1337,o),
(1025,1337,cs),
(942,1337,ls),
(912,1337,o),
(850,1319,o),
(850,1249,cs),
(850,1229,o),
(856,1201,o),
(865,1161,cs),
(874,1122,o),
(886,1084,o),
(898,1000,c),
(828,1110,o),
(705,1154,o),
(571,1154,cs),
(331,1154,o),
(84,1000,o),
(84,721,cs),
(84,476,o),
(299,339,o),
(521,327,c),
(521,344,l),
(342,260,o),
(80,57,o),
(80,-190,cs),
(80,-441,o),
(336,-568,o),
(612,-568,cs)
);
},
{
closed = 1;
nodes = (
(480,-315,o),
(354,-266,o),
(354,-158,cs),
(354,-136,o),
(359,-112,o),
(381,-86,c),
(434,-45,o),
(560,-42,o),
(605,-42,cs),
(718,-42,o),
(868,-72,o),
(868,-186,cs),
(868,-265,o),
(747,-315,o),
(612,-315,cs)
);
},
{
closed = 1;
nodes = (
(460,538,o),
(369,611,o),
(369,724,cs),
(369,841,o),
(465,900,o),
(578,900,cs),
(686,900,o),
(794,845,o),
(794,724,cs),
(794,611,o),
(702,538,o),
(587,538,cs)
);
}
);
width = 1196;
},
{
anchors = (
{
name = bottom;
pos = (569,-568);
},
{
name = top;
pos = (539,1128);
}
);
guides = (
{
pos = (-30,734);
},
{
pos = (-30,597);
}
);
layerId = m001;
shapes = (
{
closed = 1;
nodes = (
(841,-568,o),
(1087,-435,o),
(1087,-191,cs),
(1087,34,o),
(864,141,o),
(654,141,cs),
(545,141,o),
(384,108,o),
(363,52,c),
(418,79,l),
(322,61,o),
(557,243,o),
(665,309,cs),
(799,391,o),
(995,514,o),
(995,726,c),
(993,772,o),
(994,822,o),
(984,862,c),
(959,732,l),
(1029,831,o),
(1067,998,o),
(1067,1128,cs),
(1067,1187,o),
(1058,1336,o),
(1012,1336,cs),
(926,1336,ls),
(916,1336,o),
(895,1331,o),
(895,1301,cs),
(895,1288,o),
(901,1258,o),
(909,1223,cs),
(927,1145,o),
(942,1031,o),
(921,929,c),
(887,1064,o),
(738,1153,o),
(547,1153,cs),
(330,1153,o),
(113,1010,o),
(113,744,cs),
(113,428,o),
(457,305,o),
(611,377,c),
(587,386,l),
(470,321,o),
(109,85,o),
(109,-204,cs),
(109,-438,o),
(333,-568,o),
(589,-568,cs)
);
},
{
closed = 1;
nodes = (
(438,-410,o),
(272,-332,o),
(272,-172,cs),
(272,-138,o),
(281,-103,o),
(316,-63,c),
(378,-12,o),
(533,3,o),
(582,3,cs),
(703,3,o),
(903,-34,o),
(903,-200,cs),
(903,-331,o),
(756,-410,o),
(589,-410,cs)
);
},
{
closed = 1;
nodes = (
(407,488,o),
(285,585,o),
(285,747,cs),
(285,910,o),
(414,991,o),
(554,991,cs),
(688,991,o),
(830,917,o),
(830,747,cs),
(830,585,o),
(709,488,o),
(564,488,cs)
);
}
);
width = 1137;
},
{
anchors = (
{
name = bottom;
pos = (597,-568);
},
{
name = top;
pos = (551,1128);
}
);
guides = (
{
pos = (0,1126);
},
{
pos = (0,734);
},
{
pos = (0,597);
}
);
layerId = m002;
shapes = (
{
closed = 1;
nodes = (
(870,-568,o),
(1143,-442,o),
(1143,-191,cs),
(1143,51,o),
(901,153,o),
(682,153,cs),
(580,153,o),
(462,123,o),
(410,75,c),
(443,73,l),
(437,119,o),
(620,236,o),
(707,289,cs),
(847,375,o),
(1051,503,o),
(1051,726,cs),
(1051,762,o),
(1042,797,o),
(1051,885,c),
(1013,699,l),
(1089,815,o),
(1123,981,o),
(1123,1105,cs),
(1123,1168,o),
(1118,1336,o),
(1040,1336,cs),
(954,1336,ls),
(942,1336,o),
(895,1331,o),
(895,1278,cs),
(895,1260,o),
(902,1228,o),
(911,1190,cs),
(925,1129,o),
(942,1050,o),
(942,971,c),
(886,1082,o),
(748,1153,o),
(575,1153,cs),
(345,1153,o),
(113,1002,o),
(113,731,cs),
(113,461,o),
(376,323,o),
(590,333,c),
(578,366,l),
(382,268,o),
(109,55,o),
(109,-204,cs),
(109,-444,o),
(349,-568,o),
(617,-568,cs)
);
},
{
closed = 1;
nodes = (
(475,-363,o),
(328,-305,o),
(328,-172,cs),
(328,-142,o),
(336,-111,o),
(365,-78,c),
(423,-35,o),
(563,-31,o),
(610,-31,cs),
(726,-31,o),
(903,-54,o),
(903,-200,cs),
(903,-305,o),
(763,-363,o),
(617,-363,cs)
);
},
{
closed = 1;
nodes = (
(449,511,o),
(341,598,o),
(341,734,cs),
(341,872,o),
(455,944,o),
(582,944,cs),
(704,944,o),
(830,878,o),
(830,734,cs),
(830,598,o),
(722,511,o),
(592,511,cs)
);
}
);
width = 1193;
}
);
unicode = 103;
userData = {
KernOnName = g;
};
}
{
color = 6;
glyphname = j;
layers = (
{
background = {
shapes = (
{
closed = 1;
nodes = (
(401,-556,o),
(537,-398,o),
(537,-106,cs),
(537,1028,ls),
(537,1085,o),
(496,1128,o),
(444,1128,cs),
(315,1128,ls),
(265,1128,o),
(221,1084,o),
(221,1028,cs),
(221,-143,ls),
(221,-212,o),
(210,-284,o),
(163,-284,cs),
(136,-284,o),
(103,-242,o),
(50,-242,cs),
(6,-242,o),
(-23,-275,o),
(-38,-323,cs),
(-54,-374,o),
(-58,-392,o),
(-58,-408,cs),
(-58,-442,o),
(-45,-468,o),
(-5,-499,cs),
(26,-523,o),
(82,-556,o),
(200,-556,cs)
);
},
{
closed = 1;
nodes = (
(501,1280,o),
(590,1363,o),
(590,1472,cs),
(590,1580,o),
(501,1662,o),
(392,1662,cs),
(281,1662,o),
(192,1580,o),
(192,1472,cs),
(192,1363,o),
(281,1280,o),
(392,1280,cs)
);
}
);
};
hints = (
{
name = _corner.round;
origin = (0,4);
scale = (-1,1);
type = Corner;
},
{
name = _corner.round;
origin = (0,3);
type = Corner;
}
);
layerId = "997F8AB0-1B91-48A1-A6B5-F95345F1D981";
shapes = (
{
closed = 1;
nodes = (
(372,-568,o),
(508,-410,o),
(508,-118,cs),
(508,1128,l),
(192,1128,l),
(192,-155,ls),
(192,-224,o),
(181,-296,o),
(134,-296,cs),
(99,-296,o),
(66,-254,o),
(21,-254,cs),
(-23,-254,o),
(-52,-287,o),
(-67,-335,cs),
(-83,-386,o),
(-87,-404,o),
(-87,-420,cs),
(-87,-454,o),
(-74,-480,o),
(-34,-511,cs),
(-3,-535,o),
(53,-568,o),
(171,-568,cs)
);
},
{
closed = 1;
nodes = (
(472,1280,o),
(561,1363,o),
(561,1472,cs),
(561,1580,o),
(472,1662,o),
(363,1662,cs),
(252,1662,o),
(163,1580,o),
(163,1472,cs),
(163,1363,o),
(252,1280,o),
(363,1280,cs)
);
}
);
width = 704;
},
{
hints = (
{
name = _corner.round;
origin = (0,4);
scale = (-1,1);
type = Corner;
},
{
name = _corner.round;
origin = (0,3);
type = Corner;
}
);
layerId = m001;
shapes = (
{
closed = 1;
nodes = (
(305,-568,o),
(413,-432,o),
(413,-156,cs),
(413,1128,l),
(230,1128,l),
(230,-196,ls),
(230,-241,o),
(230,-410,o),
(99,-410,cs),
(80,-410,o),
(12,-373,o),
(-7,-373,cs),
(-23,-373,o),
(-35,-385,o),
(-41,-406,cs),
(-55,-453,o),
(-58,-466,o),
(-58,-477,cs),
(-58,-495,o),
(-52,-505,o),
(-32,-521,cs),
(0,-546,o),
(48,-568,o),
(122,-568,cs)
);
},
{
closed = 1;
nodes = (
(392,1371,o),
(452,1429,o),
(452,1509,cs),
(452,1589,o),
(392,1646,o),
(319,1646,cs),
(245,1646,o),
(185,1589,o),
(185,1509,cs),
(185,1429,o),
(245,1371,o),
(319,1371,cs)
);
}
);
width = 624;
},
{
hints = (
{
name = _corner.round;
origin = (0,4);
scale = (-1,1);
type = Corner;
},
{
name = _corner.round;
origin = (0,3);
type = Corner;
}
);
layerId = m002;
shapes = (
{
closed = 1;
nodes = (
(348,-568,o),
(473,-420,o),
(473,-131,cs),
(473,1128,l),
(230,1128,l),
(230,-171,ls),
(230,-249,o),
(219,-360,o),
(127,-360,cs),
(79,-360,o),
(53,-315,o),
(11,-315,cs),
(-17,-315,o),
(-31,-343,o),
(-40,-374,cs),
(-55,-424,o),
(-58,-439,o),
(-58,-452,cs),
(-58,-477,o),
(-48,-494,o),
(-21,-516,cs),
(11,-541,o),
(60,-568,o),
(165,-568,cs)
);
},
{
closed = 1;
nodes = (
(439,1321,o),
(512,1391,o),
(512,1484,cs),
(512,1577,o),
(439,1646,o),
(349,1646,cs),
(258,1646,o),
(185,1577,o),
(185,1484,cs),
(185,1391,o),
(258,1321,o),
(349,1321,cs)
);
}
);
width = 684;
}
);
unicode = 106;
userData = {
KernOnName = j;
};
}
{
color = 6;
glyphname = l;
layers = (
{
anchors = (
{
name = bottom;
pos = (402,0);
},
{
name = center;
pos = (346,571);
},
{
name = right;
pos = (843,884);
},
{
name = top;
pos = (343,1748);
},
{
name = topright;
pos = (564,1774);
}
);
background = {
shapes = (
{
closed = 1;
nodes = (
(489,-17,o),
(571,3,o),
(638,59,cs),
(668,84,o),
(681,106,o),
(681,133,cs),
(681,168,o),
(658,206,o),
(644,239,cs),
(630,272,o),
(608,291,o),
(585,291,cs),
(560,291,o),
(533,268,o),
(501,268,cs),
(484,268,o),
(477,279,o),
(477,300,cs),
(477,1675,ls),
(477,1731,o),
(435,1774,o),
(383,1774,cs),
(252,1774,ls),
(202,1774,o),
(158,1730,o),
(158,1675,cs),
(158,302,ls),
(158,67,o),
(262,-17,o),
(417,-17,cs)
);
}
);
};
hints = (
{
name = _corner.round;
origin = (0,19);
scale = (-1,1);
type = Corner;
},
{
name = _corner.round;
origin = (0,18);
type = Corner;
}
);
layerId = "997F8AB0-1B91-48A1-A6B5-F95345F1D981";
shapes = (
{
closed = 1;
nodes = (
(489,-17,o),
(571,3,o),
(638,59,cs),
(668,84,o),
(681,106,o),
(681,133,cs),
(681,168,o),
(658,206,o),
(644,239,cs),
(630,272,o),
(608,291,o),
(585,291,cs),
(560,291,o),
(533,268,o),
(501,268,cs),
(484,268,o),
(477,279,o),
(477,300,cs),
(477,1774,l),
(158,1774,l),
(158,302,ls),
(158,67,o),
(262,-17,o),
(417,-17,cs)
);
}
);
width = 687;
},
{
anchors = (
{
name = bottom;
pos = (371,0);
},
{
name = center;
pos = (306,564);
},
{
name = right;
pos = (750,884);
},
{
name = top;
pos = (308,1748);
},
{
name = topright;
pos = (482,1765);
}
);
background = {
shapes = (
{
closed = 1;
nodes = (
(445,-17,o),
(510,-1,o),
(569,48,cs),
(580,57,o),
(587,67,o),
(587,78,cs),
(587,95,o),
(576,118,o),
(554,162,cs),
(547,175,o),
(540,178,o),
(527,178,cs),
(512,178,o),
(483,147,o),
(437,147,cs),
(401,147,o),
(367,165,o),
(367,250,cs),
(367,1730,ls),
(367,1753,o),
(350,1773,o),
(328,1773,cs),
(226,1773,ls),
(204,1773,o),
(187,1753,o),
(187,1730,cs),
(187,237,ls),
(187,47,o),
(284,-17,o),
(400,-17,cs)
);
}
);
};
hints = (
{
name = _corner.round;
origin = (0,19);
scale = (-1,1);
type = Corner;
},
{
name = _corner.round;
origin = (0,18);
type = Corner;
}
);
layerId = m001;
shapes = (
{
closed = 1;
nodes = (
(445,-17,o),
(510,-1,o),
(569,48,cs),
(580,57,o),
(587,67,o),
(587,78,cs),
(587,95,o),
(576,118,o),
(554,162,cs),
(547,175,o),
(540,178,o),
(527,178,cs),
(512,178,o),
(483,147,o),
(437,147,cs),
(401,147,o),
(367,165,o),
(367,250,cs),
(367,1773,l),
(187,1773,l),
(187,237,ls),
(187,47,o),
(284,-17,o),
(400,-17,cs)
);
}
);
width = 617;
},
{
anchors = (
{
name = bottom;
pos = (410,0);
},
{
name = center;
pos = (342,564);
},
{
name = right;
pos = (770,874);
},
{
name = top;
pos = (333,1748);
},
{
name = topright;
pos = (541,1773);
}
);
background = {
hints = (
{
name = _corner.round;
origin = (0,18);
type = Corner;
},
{
name = _corner.round;
origin = (0,19);
scale = (-1,1);
type = Corner;
}
);
shapes = (
{
closed = 1;
nodes = (
(481,-17,o),
(555,1,o),
(619,54,cs),
(636,68,o),
(648,84,o),
(648,103,cs),
(648,129,o),
(616,188,o),
(611,201,cs),
(602,222,o),
(590,230,o),
(575,230,cs),
(553,230,o),
(513,204,o),
(483,204,cs),
(456,204,o),
(433,221,o),
(433,275,cs),
(433,1773,l),
(187,1773,l),
(187,282,ls),
(187,57,o),
(275,-17,o),
(411,-17,cs)
);
}
);
};
hints = (
{
name = _corner.round;
origin = (0,19);
scale = (-1,1);
type = Corner;
},
{
name = _corner.round;
origin = (0,18);
type = Corner;
}
);
layerId = m002;
shapes = (
{
closed = 1;
nodes = (
(481,-17,o),
(555,1,o),
(619,54,cs),
(636,68,o),
(648,84,o),
(648,103,cs),
(648,129,o),
(616,188,o),
(611,201,cs),
(602,222,o),
(590,230,o),
(575,230,cs),
(553,230,o),
(513,204,o),
(483,204,cs),
(456,204,o),
(433,221,o),
(433,275,cs),
(433,1773,l),
(187,1773,l),
(187,282,ls),
(187,57,o),
(275,-17,o),
(411,-17,cs)
);
}
);
width = 683;
}
);
unicode = 108;
userData = {
KernOnName = l;
};
}
{
color = 6;
glyphname = copyright;
layers = (
{
layerId = "997F8AB0-1B91-48A1-A6B5-F95345F1D981";
shapes = (
{
closed = 1;
nodes = (
(1317,-25,o),
(1670,310,o),
(1670,767,cs),
(1670,1222,o),
(1317,1558,o),
(884,1558,cs),
(450,1558,o),
(95,1222,o),
(95,767,cs),
(95,310,o),
(449,-25,o),
(884,-25,cs)
);
},
{
closed = 1;
nodes = (
(1010,357,o),
(1192,412,o),
(1192,516,cs),
(1192,530,o),
(1188,542,o),
(1175,568,cs),
(1166,586,ls),
(1149,620,o),
(1130,627,o),
(1101,627,cs),
(1081,627,o),
(1070,622,o),
(1034,602,cs),
(1006,586,o),
(966,564,o),
(913,564,cs),
(808,564,o),
(746,656,o),
(746,780,cs),
(746,887,o),
(800,987,o),
(895,987,cs),
(944,987,o),
(982,967,o),
(982,899,cs),
(982,843,o),
(1014,814,o),
(1068,814,cs),
(1089,814,ls),
(1150,814,o),
(1201,842,o),
(1201,926,cs),
(1201,1051,o),
(1114,1184,o),
(898,1184,cs),
(682,1184,o),
(517,1024,o),
(517,781,cs),
(517,532,o),
(676,357,o),
(901,357,cs)
);
},
{
closed = 1;
nodes = (
(569,195,o),
(318,430,o),
(318,767,cs),
(318,1101,o),
(569,1338,o),
(884,1338,cs),
(1197,1338,o),
(1447,1101,o),
(1447,767,cs),
(1447,430,o),
(1197,195,o),
(884,195,cs)
);
}
);
width = 1764;
},
{
background = {
shapes = (
{
closed = 1;
nodes = (
(1229,24,o),
(1560,336,o),
(1560,767,cs),
(1560,1196,o),
(1229,1509,o),
(824,1509,cs),
(417,1509,o),
(85,1196,o),
(85,767,cs),
(85,336,o),
(417,24,o),
(824,24,cs)
);
},
{
closed = 1;
nodes = (
(936,404,o),
(1082,453,o),
(1082,517,cs),
(1082,525,o),
(1081,531,o),
(1070,550,cs),
(1061,568,ls),
(1054,580,o),
(1048,583,o),
(1041,583,cs),
(1032,583,o),
(1020,576,o),
(999,564,cs),
(967,546,o),
(920,520,o),
(853,520,cs),
(714,520,o),
(636,637,o),
(636,780,cs),
(636,903,o),
(704,1031,o),
(835,1031,cs),
(910,1031,o),
(972,992,o),
(972,898,cs),
(972,870,o),
(979,859,o),
(1008,859,cs),
(1029,859,ls),
(1069,859,o),
(1091,873,o),
(1091,925,cs),
(1091,1028,o),
(1024,1137,o),
(838,1137,cs),
(650,1137,o),
(507,999,o),
(507,781,cs),
(507,556,o),
(646,404,o),
(841,404,cs)
);
},
{
closed = 1;
nodes = (
(481,153,o),
(220,408,o),
(220,767,cs),
(220,1124,o),
(481,1380,o),
(824,1380,cs),
(1165,1380,o),
(1425,1124,o),
(1425,767,cs),
(1425,408,o),
(1165,153,o),
(824,153,cs)
);
}
);
};
layerId = m001;
shapes = (
{
closed = 1;
nodes = (
(1229,24,o),
(1560,336,o),
(1560,767,cs),
(1560,1196,o),
(1229,1509,o),
(824,1509,cs),
(417,1509,o),
(85,1196,o),
(85,767,cs),
(85,336,o),
(417,24,o),
(824,24,cs)
);
},
{
closed = 1;
nodes = (
(940,402,o),
(1088,451,o),
(1088,517,cs),
(1088,525,o),
(1086,531,o),
(1076,551,cs),
(1067,569,ls),
(1060,583,o),
(1052,586,o),
(1044,586,cs),
(1034,586,o),
(1023,579,o),
(1000,566,cs),
(970,549,o),
(923,523,o),
(856,523,cs),
(719,523,o),
(642,639,o),
(642,780,cs),
(642,902,o),
(709,1029,o),
(838,1029,cs),
(912,1029,o),
(972,991,o),
(972,898,cs),
(972,870,o),
(980,857,o),
(1011,857,cs),
(1032,857,ls),
(1073,857,o),
(1097,872,o),
(1097,925,cs),
(1097,1029,o),
(1029,1140,o),
(841,1140,cs),
(651,1140,o),
(507,1001,o),
(507,781,cs),
(507,555,o),
(647,402,o),
(844,402,cs)
);
},
{
closed = 1;
nodes = (
(481,153,o),
(220,408,o),
(220,767,cs),
(220,1124,o),
(481,1380,o),
(824,1380,cs),
(1165,1380,o),
(1425,1124,o),
(1425,767,cs),
(1425,408,o),
(1165,153,o),
(824,153,cs)
);
}
);
width = 1650;
},
{
layerId = m002;
shapes = (
{
closed = 1;
nodes = (
(1276,-1,o),
(1620,323,o),
(1620,767,cs),
(1620,1209,o),
(1276,1534,o),
(854,1534,cs),
(430,1534,o),
(85,1209,o),
(85,767,cs),
(85,323,o),
(430,-1,o),
(854,-1,cs)
);
},
{
closed = 1;
nodes = (
(974,379,o),
(1142,432,o),
(1142,517,cs),
(1142,527,o),
(1140,537,o),
(1127,560,cs),
(1118,578,ls),
(1105,601,o),
(1088,608,o),
(1071,608,cs),
(1054,608,o),
(1038,599,o),
(1018,588,cs),
(985,570,o),
(944,545,o),
(883,545,cs),
(762,545,o),
(696,650,o),
(696,780,cs),
(696,893,o),
(755,1006,o),
(865,1006,cs),
(926,1006,o),
(972,976,o),
(972,898,cs),
(972,862,o),
(987,834,o),
(1038,834,cs),
(1059,834,ls),
(1112,834,o),
(1151,856,o),
(1151,925,cs),
(1151,1039,o),
(1073,1162,o),
(868,1162,cs),
(662,1162,o),
(507,1012,o),
(507,781,cs),
(507,544,o),
(657,379,o),
(871,379,cs)
);
},
{
closed = 1;
nodes = (
(528,178,o),
(268,421,o),
(268,767,cs),
(268,1111,o),
(528,1355,o),
(854,1355,cs),
(1178,1355,o),
(1437,1111,o),
(1437,767,cs),
(1437,421,o),
(1178,178,o),
(854,178,cs)
);
}
);
width = 1704;
}
);
unicode = 169;
userData = {
KernOnSpecialSpacing = {
R = symbols;
};
};
}
{
color = 6;
glyphname = registered;
layers = (
{
background = {
shapes = (
{
closed = 1;
nodes = (
(1344,-25,o),
(1697,310,o),
(1697,767,cs),
(1697,1222,o),
(1344,1558,o),
(911,1558,cs),
(477,1558,o),
(122,1222,o),
(122,767,cs),
(122,310,o),
(476,-25,o),
(911,-25,cs)
);
},
{
closed = 1;
nodes = (
(596,195,o),
(345,430,o),
(345,767,cs),
(345,1101,o),
(596,1338,o),
(911,1338,cs),
(1224,1338,o),
(1474,1101,o),
(1474,767,cs),
(1474,430,o),
(1224,195,o),
(911,195,cs)
);
},
{
closed = 1;
nodes = (
(1214,344,o),
(1265,390,o),
(1265,437,cs),
(1265,477,o),
(1244,549,o),
(1198,549,cs),
(1188,549,o),
(1174,547,o),
(1164,545,cs),
(1153,543,o),
(1144,542,o),
(1139,542,cs),
(1088,542,o),
(1040,564,o),
(988,617,c),
(967,614,l),
(1117,614,o),
(1249,724,o),
(1249,871,cs),
(1249,1057,o),
(1101,1131,o),
(917,1131,cs),
(688,1131,ls),
(641,1131,o),
(610,1101,o),
(610,1049,cs),
(610,421,ls),
(610,388,o),
(638,353,o),
(688,353,cs),
(735,353,ls),
(784,353,o),
(811,386,o),
(811,421,cs),
(811,730,l),
(864,496,l),
(935,409,o),
(1021,344,o),
(1133,344,cs)
);
},
{
closed = 1;
nodes = (
(811,949,l),
(897,949,ls),
(977,949,o),
(1029,929,o),
(1029,867,cs),
(1029,791,o),
(970,764,o),
(890,764,cs),
(854,764,o),
(829,769,o),
(811,773,c)
);
}
);
};
layerId = "997F8AB0-1B91-48A1-A6B5-F95345F1D981";
shapes = (
{
closed = 1;
nodes = (
(1317,-25,o),
(1670,310,o),
(1670,767,cs),
(1670,1222,o),
(1317,1558,o),
(884,1558,cs),
(450,1558,o),
(95,1222,o),
(95,767,cs),
(95,310,o),
(449,-25,o),
(884,-25,cs)
);
},
{
closed = 1;
nodes = (
(569,195,o),
(318,430,o),
(318,767,cs),
(318,1101,o),
(569,1338,o),
(884,1338,cs),
(1197,1338,o),
(1447,1101,o),
(1447,767,cs),
(1447,430,o),
(1197,195,o),
(884,195,cs)
);
},
{
closed = 1;
nodes = (
(1187,344,o),
(1238,390,o),
(1238,437,cs),
(1238,463,o),
(1229,501,o),
(1211,526,cs),
(1201,540,o),
(1188,549,o),
(1171,549,cs),
(1161,549,o),
(1147,547,o),
(1137,545,cs),
(1126,543,o),
(1117,542,o),
(1112,542,cs),
(1069,542,o),
(1015,559,o),
(964,615,c),
(973,616,o),
(981,617,o),
(995,619,cs),
(1119,640,o),
(1222,741,o),
(1222,871,cs),
(1222,1057,o),
(1074,1131,o),
(890,1131,cs),
(661,1131,ls),
(614,1131,o),
(583,1101,o),
(583,1049,cs),
(583,421,ls),
(583,388,o),
(611,353,o),
(661,353,cs),
(708,353,ls),
(757,353,o),
(784,386,o),
(784,421,cs),
(784,562,l),
(904,397,o),
(1002,344,o),
(1106,344,cs)
);
},
{
closed = 1;
nodes = (
(827,764,o),
(802,769,o),
(784,773,c),
(784,949,l),
(870,949,ls),
(950,949,o),
(1002,929,o),
(1002,867,cs),
(1002,791,o),
(943,764,o),
(863,764,cs)
);
}
);
width = 1764;
},
{
background = {
shapes = (
{
closed = 1;
nodes = (
(1229,24,o),
(1560,336,o),
(1560,766,cs),
(1560,1196,o),
(1229,1509,o),
(823,1509,cs),
(417,1509,o),
(85,1196,o),
(85,766,cs),
(85,336,o),
(417,24,o),
(823,24,cs)
);
},
{
closed = 1;
nodes = (
(481,153,o),
(220,408,o),
(220,766,cs),
(220,1124,o),
(481,1380,o),
(824,1380,cs),
(1166,1380,o),
(1425,1124,o),
(1425,766,cs),
(1425,408,o),
(1165,153,o),
(823,153,cs)
);
},
{
closed = 1;
nodes = (
(1100,404,o),
(1128,429,o),
(1128,455,cs),
(1128,466,o),
(1123,488,o),
(1117,502,cs),
(1113,512,o),
(1109,515,o),
(1102,515,cs),
(1097,515,o),
(1090,512,o),
(1085,511,cs),
(1079,509,o),
(1063,507,o),
(1049,507,cs),
(958,507,o),
(843,597,o),
(792,691,c),
(812,687,o),
(846,684,o),
(871,684,cs),
(1013,684,o),
(1112,779,o),
(1112,915,cs),
(1112,1064,o),
(992,1130,o),
(830,1130,cs),
(601,1130,ls),
(581,1130,o),
(573,1116,o),
(573,1091,cs),
(573,438,ls),
(573,427,o),
(579,413,o),
(601,413,cs),
(648,413,ls),
(668,413,o),
(674,424,o),
(674,438,cs),
(674,701,l),
(729,604,o),
(863,404,o),
(1038,404,cs)
);
},
{
closed = 1;
nodes = (
(758,768,o),
(701,779,o),
(674,788,c),
(674,1033,l),
(810,1033,ls),
(905,1033,o),
(992,1003,o),
(992,899,cs),
(992,791,o),
(898,768,o),
(805,768,cs)
);
}
);
};
layerId = m001;
shapes = (
{
closed = 1;
nodes = (
(1229,24,o),
(1560,336,o),
(1560,766,cs),
(1560,1196,o),
(1229,1509,o),
(823,1509,cs),
(417,1509,o),
(85,1196,o),
(85,766,cs),
(85,336,o),
(417,24,o),
(823,24,cs)
);
},
{
closed = 1;
nodes = (
(481,153,o),
(220,408,o),
(220,766,cs),
(220,1124,o),
(481,1380,o),
(824,1380,cs),
(1166,1380,o),
(1425,1124,o),
(1425,766,cs),
(1425,408,o),
(1165,153,o),
(823,153,cs)
);
},
{
closed = 1;
nodes = (
(1108,399,o),
(1140,426,o),
(1140,455,cs),
(1140,466,o),
(1135,487,o),
(1127,504,cs),
(1122,515,o),
(1117,518,o),
(1110,518,cs),
(1104,518,o),
(1094,515,o),
(1090,514,cs),
(1082,512,o),
(1068,510,o),
(1056,510,cs),
(968,510,o),
(864,595,o),
(811,685,c),
(831,681,o),
(860,679,o),
(879,679,cs),
(1020,679,o),
(1124,776,o),
(1124,913,cs),
(1124,1068,o),
(1001,1135,o),
(836,1135,cs),
(607,1135,ls),
(583,1135,o),
(573,1118,o),
(573,1091,cs),
(573,438,ls),
(573,426,o),
(581,408,o),
(607,408,cs),
(654,408,ls),
(678,408,o),
(686,423,o),
(686,438,cs),
(686,694,l),
(745,589,o),
(874,399,o),
(1046,399,cs)
);
},
{
closed = 1;
nodes = (
(765,769,o),
(710,780,o),
(686,788,c),
(686,1028,l),
(816,1028,ls),
(909,1028,o),
(992,999,o),
(992,900,cs),
(992,794,o),
(902,769,o),
(811,769,cs)
);
}
);
width = 1656;
},
{
layerId = m002;
shapes = (
{
closed = 1;
nodes = (
(1276,-1,o),
(1620,323,o),
(1620,767,cs),
(1620,1209,o),
(1276,1534,o),
(854,1534,cs),
(430,1534,o),
(85,1209,o),
(85,767,cs),
(85,323,o),
(430,-1,o),
(854,-1,cs)
);
},
{
closed = 1;
nodes = (
(528,178,o),
(268,421,o),
(268,767,cs),
(268,1111,o),
(528,1355,o),
(854,1355,cs),
(1178,1355,o),
(1437,1111,o),
(1437,767,cs),
(1437,421,o),
(1178,178,o),
(854,178,cs)
);
},
{
closed = 1;
nodes = (
(1141,379,o),
(1188,414,o),
(1188,455,cs),
(1188,467,o),
(1183,506,o),
(1168,530,cs),
(1162,542,o),
(1153,550,o),
(1141,550,cs),
(1131,550,o),
(1121,548,o),
(1111,547,cs),
(1101,545,o),
(1092,543,o),
(1082,543,cs),
(1014,543,o),
(953,579,o),
(888,660,c),
(896,659,o),
(902,659,o),
(910,659,cs),
(1050,659,o),
(1172,765,o),
(1172,906,cs),
(1172,1085,o),
(1035,1155,o),
(860,1155,cs),
(631,1155,ls),
(589,1155,o),
(573,1125,o),
(573,1091,cs),
(573,438,ls),
(573,420,o),
(587,388,o),
(631,388,cs),
(678,388,ls),
(720,388,o),
(734,417,o),
(734,438,cs),
(734,668,l),
(806,535,o),
(916,379,o),
(1076,379,cs)
);
},
{
closed = 1;
nodes = (
(793,774,o),
(751,783,o),
(734,787,c),
(734,1008,l),
(840,1008,ls),
(924,1008,o),
(992,984,o),
(992,902,cs),
(992,807,o),
(919,774,o),
(833,774,cs)
);
}
);
width = 1704;
}
);
unicode = 174;
userData = {
KernOnSpecialSpacing = {
L = superiors;
};
};
}
{
color = 6;
glyphname = paragraph;
layers = (
{
background = {
shapes = (
{
closed = 1;
nodes = (
(909,-36,ls),
(967,-36,o),
(1001,2,o),
(1001,48,cs),
(1001,1417,ls),
(1001,1478,o),
(960,1522,o),
(882,1522,cs),
(753,1522,ls),
(453,1522,o),
(219,1333,o),
(219,1052,cs),
(219,791,o),
(428,617,o),
(712,603,c),
(712,48,ls),
(712,5,o),
(744,-36,o),
(806,-36,cs)
);
},
{
closed = 1;
nodes = (
(1308,-36,ls),
(1355,-36,o),
(1395,3,o),
(1395,52,cs),
(1395,1433,ls),
(1395,1483,o),
(1355,1522,o),
(1309,1522,cs),
(1194,1522,ls),
(1146,1522,o),
(1106,1483,o),
(1106,1433,cs),
(1106,52,ls),
(1106,3,o),
(1146,-36,o),
(1193,-36,cs)
);
}
);
};
hints = (
{
name = _corner.round;
origin = (0,9);
type = Corner;
},
{
name = _corner.round;
origin = (1,3);
type = Corner;
},
{
name = _corner.round;
origin = (0,1);
type = Corner;
},
{
name = _corner.round;
origin = (1,1);
type = Corner;
},
{
name = _corner.round;
origin = (1,0);
scale = (-1,1);
type = Corner;
},
{
name = _corner.round;
origin = (0,0);
scale = (-1,1);
type = Corner;
},
{
name = _corner.round;
origin = (1,2);
scale = (-1,1);
type = Corner;
}
);
layerId = "997F8AB0-1B91-48A1-A6B5-F95345F1D981";
shapes = (
{
closed = 1;
nodes = (
(1001,0,l),
(1001,1533,l),
(753,1533,l),
(453,1533,o),
(219,1344,o),
(219,1063,cs),
(219,802,o),
(428,628,o),
(712,614,c),
(712,0,l)
);
},
{
closed = 1;
nodes = (
(1395,0,l),
(1395,1533,l),
(1106,1533,l),
(1106,0,l)
);
}
);
width = 1636;
},
{
background = {
shapes = (
{
closed = 1;
nodes = (
(829,0,ls),
(845,0,o),
(851,8,o),
(851,25,cs),
(851,1487,ls),
(851,1517,o),
(841,1533,o),
(802,1533,cs),
(673,1533,ls),
(409,1533,o),
(209,1365,o),
(209,1111,cs),
(209,856,o),
(417,696,o),
(702,708,c),
(702,25,ls),
(702,8,o),
(708,0,o),
(726,0,cs)
);
},
{
closed = 1;
nodes = (
(1228,0,ls),
(1235,0,o),
(1245,12,o),
(1245,29,cs),
(1245,1504,ls),
(1245,1522,o),
(1235,1533,o),
(1229,1533,cs),
(1114,1533,ls),
(1106,1533,o),
(1096,1522,o),
(1096,1504,cs),
(1096,29,ls),
(1096,12,o),
(1106,0,o),
(1113,0,cs)
);
}
);
};
hints = (
{
name = _corner.round;
origin = (0,9);
type = Corner;
},
{
name = _corner.round;
origin = (1,3);
type = Corner;
},
{
name = _corner.round;
origin = (0,0);
scale = (-1,1);
type = Corner;
},
{
name = _corner.round;
origin = (1,0);
scale = (-1,1);
type = Corner;
},
{
name = _corner.round;
origin = (0,1);
type = Corner;
},
{
name = _corner.round;
origin = (1,2);
scale = (-1,1);
type = Corner;
},
{
name = _corner.round;
origin = (1,1);
type = Corner;
}
);
layerId = m001;
shapes = (
{
closed = 1;
nodes = (
(851,0,l),
(851,1533,l),
(673,1533,ls),
(409,1533,o),
(209,1365,o),
(209,1111,cs),
(209,856,o),
(417,696,o),
(702,708,c),
(702,0,l)
);
},
{
closed = 1;
nodes = (
(1245,0,l),
(1245,1533,l),
(1096,1533,l),
(1096,0,l)
);
}
);
width = 1476;
},
{
background = {
shapes = (
{
closed = 1;
nodes = (
(859,0,ls),
(896,0,o),
(911,24,o),
(911,50,cs),
(911,1462,ls),
(911,1500,o),
(893,1533,o),
(832,1533,cs),
(703,1533,ls),
(423,1533,o),
(209,1354,o),
(209,1086,cs),
(209,826,o),
(416,657,o),
(702,657,c),
(702,50,l),
(702,26,o),
(715,0,o),
(756,0,cs)
);
},
{
closed = 1;
nodes = (
(1258,0,ls),
(1284,0,o),
(1305,25,o),
(1305,54,cs),
(1305,1479,ls),
(1305,1509,o),
(1284,1533,o),
(1259,1533,cs),
(1144,1533,ls),
(1117,1533,o),
(1096,1509,o),
(1096,1479,cs),
(1096,54,ls),
(1096,25,o),
(1117,0,o),
(1143,0,cs)
);
}
);
};
hints = (
{
name = _corner.round;
origin = (1,0);
scale = (-1,1);
type = Corner;
},
{
name = _corner.round;
origin = (0,0);
scale = (-1,1);
type = Corner;
},
{
name = _corner.round;
origin = (0,9);
type = Corner;
},
{
name = _corner.round;
origin = (1,3);
type = Corner;
},
{
name = _corner.round;
origin = (0,1);
type = Corner;
},
{
name = _corner.round;
origin = (1,1);
type = Corner;
},
{
name = _corner.round;
origin = (1,2);
scale = (-1,1);
type = Corner;
}
);
layerId = m002;
shapes = (
{
closed = 1;
nodes = (
(911,0,l),
(911,1533,l),
(703,1533,ls),
(423,1533,o),
(209,1354,o),
(209,1086,cs),
(209,826,o),
(416,657,o),
(702,657,c),
(702,0,l)
);
},
{
closed = 1;
nodes = (
(1305,0,l),
(1305,1533,l),
(1096,1533,l),
(1096,0,l)
);
}
);
width = 1536;
}
);
unicode = 182;
userData = {
KernOnSpecialSpacing = {
L = NoKerning;
R = NoKerning;
};
};
}
{
color = 6;
glyphname = onesuperior;
layers = (
{
background = {
shapes = (
{
closed = 1;
nodes = (
(444,815,ls),
(488,815,o),
(529,853,o),
(529,913,cs),
(529,1718,ls),
(529,1804,o),
(467,1840,o),
(414,1840,cs),
(367,1840,o),
(339,1823,o),
(300,1798,cs),
(233,1755,o),
(158,1730,o),
(77,1713,cs),
(7,1698,o),
(-22,1656,o),
(-3,1581,cs),
(16,1505,o),
(40,1484,o),
(88,1484,cs),
(117,1484,o),
(205,1497,o),
(264,1539,c),
(254,1377,l),
(254,913,ls),
(254,853,o),
(294,815,o),
(338,815,cs)
);
}
);
};
hints = (
{
name = _corner.round;
origin = (0,21);
type = Corner;
},
{
name = _corner.round;
origin = (0,0);
scale = (-1,1);
type = Corner;
}
);
layerId = "997F8AB0-1B91-48A1-A6B5-F95345F1D981";
shapes = (
{
closed = 1;
nodes = (
(529,815,l),
(529,1718,ls),
(529,1804,o),
(467,1840,o),
(414,1840,cs),
(367,1840,o),
(339,1823,o),
(300,1798,cs),
(233,1755,o),
(158,1730,o),
(77,1713,cs),
(7,1698,o),
(-22,1656,o),
(-3,1581,cs),
(16,1505,o),
(40,1484,o),
(88,1484,cs),
(117,1484,o),
(205,1497,o),
(264,1539,c),
(254,1377,l),
(254,815,l)
);
}
);
width = 670;
},
{
background = {
shapes = (
{
closed = 1;
nodes = (
(418,880,ls),
(428,880,o),
(441,893,o),
(441,916,cs),
(441,1775,ls),
(441,1816,o),
(422,1839,o),
(388,1839,cs),
(359,1839,o),
(346,1830,o),
(310,1805,cs),
(235,1753,o),
(149,1723,o),
(64,1705,cs),
(27,1696,o),
(24,1684,o),
(33,1644,cs),
(44,1599,o),
(47,1593,o),
(70,1593,cs),
(113,1593,o),
(205,1618,o),
(293,1665,c),
(291,1549,l),
(291,916,ls),
(291,893,o),
(301,880,o),
(312,880,cs)
);
}
);
};
hints = (
{
name = _corner.round;
origin = (0,21);
type = Corner;
},
{
name = _corner.round;
origin = (0,0);
scale = (-1,1);
type = Corner;
}
);
layerId = m001;
shapes = (
{
closed = 1;
nodes = (
(441,880,l),
(441,1775,ls),
(441,1816,o),
(422,1839,o),
(388,1839,cs),
(359,1839,o),
(346,1830,o),
(310,1805,cs),
(235,1753,o),
(149,1723,o),
(64,1705,cs),
(27,1696,o),
(24,1684,o),
(33,1644,cs),
(44,1599,o),
(47,1593,o),
(70,1593,cs),
(113,1593,o),
(205,1618,o),
(293,1665,c),
(291,1549,l),
(291,880,l)
);
}
);
width = 619;
},
{
background = {
shapes = (
{
closed = 1;
nodes = (
(448,855,ls),
(477,855,o),
(501,881,o),
(501,916,cs),
(501,1775,ls),
(501,1831,o),
(468,1864,o),
(418,1864,cs),
(378,1864,o),
(356,1849,o),
(323,1826,cs),
(249,1775,o),
(170,1747,o),
(87,1729,cs),
(25,1714,o),
(23,1686,o),
(34,1638,cs),
(45,1593,o),
(54,1568,o),
(100,1568,cs),
(151,1568,o),
(254,1601,o),
(296,1623,c),
(291,1550,l),
(291,916,ls),
(291,881,o),
(312,855,o),
(342,855,cs)
);
}
);
};
hints = (
{
name = _corner.round;
origin = (0,21);
type = Corner;
},
{
name = _corner.round;
origin = (0,0);
scale = (-1,1);
type = Corner;
}
);
layerId = m002;
shapes = (
{
closed = 1;
nodes = (
(501,855,l),
(501,1775,ls),
(501,1831,o),
(468,1864,o),
(418,1864,cs),
(378,1864,o),
(356,1849,o),
(323,1826,cs),
(249,1775,o),
(170,1747,o),
(87,1729,cs),
(25,1714,o),
(23,1686,o),
(34,1638,cs),
(45,1593,o),
(54,1568,o),
(100,1568,cs),
(151,1568,o),
(254,1601,o),
(296,1623,c),
(291,1550,l),
(291,855,l)
);
}
);
width = 679;
}
);
unicode = 185;
userData = {
KernOnSpecialSpacing = {
L = NoKerning;
R = NoKerning;
};
};
}
{
color = 6;
glyphname = ordmasculine;
layers = (
{
layerId = "997F8AB0-1B91-48A1-A6B5-F95345F1D981";
shapes = (
{
closed = 1;
nodes = (
(805,564,o),
(994,768,o),
(994,1064,cs),
(994,1359,o),
(823,1563,o),
(524,1563,cs),
(228,1563,o),
(56,1362,o),
(56,1064,cs),
(56,774,o),
(236,564,o),
(520,564,cs)
);
},
{
closed = 1;
nodes = (
(392,812,o),
(351,940,o),
(351,1064,cs),
(351,1202,o),
(395,1316,o),
(522,1316,cs),
(652,1316,o),
(699,1200,o),
(699,1062,cs),
(699,926,o),
(652,812,o),
(526,812,cs)
);
}
);
width = 1045;
},
{
background = {
shapes = (
{
closed = 1;
nodes = (
(741,600,o),
(913,792,o),
(913,1078,cs),
(913,1364,o),
(759,1557,o),
(483,1557,cs),
(208,1557,o),
(55,1364,o),
(55,1078,cs),
(55,800,o),
(218,600,o),
(479,600,cs)
);
},
{
closed = 1;
nodes = (
(318,782,o),
(270,942,o),
(270,1078,cs),
(270,1233,o),
(323,1376,o),
(481,1376,cs),
(641,1376,o),
(698,1231,o),
(698,1076,cs),
(698,924,o),
(641,782,o),
(485,782,cs)
);
}
);
};
layerId = m001;
shapes = (
{
closed = 1;
nodes = (
(728,615,o),
(893,799,o),
(893,1078,cs),
(893,1356,o),
(747,1542,o),
(483,1542,cs),
(220,1542,o),
(75,1356,o),
(75,1078,cs),
(75,807,o),
(231,615,o),
(479,615,cs)
);
},
{
closed = 1;
nodes = (
(302,767,o),
(250,937,o),
(250,1078,cs),
(250,1238,o),
(307,1391,o),
(481,1391,cs),
(656,1391,o),
(718,1237,o),
(718,1076,cs),
(718,919,o),
(656,767,o),
(485,767,cs)
);
}
);
width = 963;
},
{
layerId = m002;
shapes = (
{
closed = 1;
nodes = (
(771,600,o),
(943,792,o),
(943,1078,cs),
(943,1364,o),
(789,1557,o),
(513,1557,cs),
(238,1557,o),
(85,1364,o),
(85,1078,cs),
(85,800,o),
(248,600,o),
(509,600,cs)
);
},
{
closed = 1;
nodes = (
(348,782,o),
(300,942,o),
(300,1078,cs),
(300,1233,o),
(353,1376,o),
(511,1376,cs),
(671,1376,o),
(728,1231,o),
(728,1076,cs),
(728,924,o),
(671,782,o),
(515,782,cs)
);
}
);
width = 1023;
}
);
unicode = 186;
}
{
color = 3;
glyphname = Eth;
layers = (
{
background = {
shapes = (
{
closed = 1;
nodes = (
(657,-36,ls),
(1182,-36,o),
(1501,273,o),
(1501,775,cs),
(1501,1235,o),
(1239,1522,o),
(675,1522,cs),
(358,1522,ls),
(284,1522,o),
(229,1471,o),
(229,1401,cs),
(229,86,ls),
(229,13,o),
(286,-36,o),
(358,-36,cs)
);
},
{
closed = 1;
nodes = (
(684,248,o),
(677,248,o),
(560,250,c),
(560,1235,l),
(626,1236,o),
(666,1237,o),
(705,1237,cs),
(1003,1237,o),
(1154,1073,o),
(1154,775,cs),
(1154,428,o),
(1017,248,o),
(689,248,cs)
);
},
{
closed = 1;
nodes = (
(796,600,ls),
(841,600,o),
(880,630,o),
(880,682,cs),
(880,801,ls),
(880,843,o),
(841,875,o),
(796,875,cs),
(125,875,ls),
(81,875,o),
(42,843,o),
(42,802,cs),
(42,672,ls),
(42,630,o),
(81,600,o),
(125,600,cs)
);
}
);
};
hints = (
{
name = _corner.round;
origin = (0,0);
scale = (-1,1);
type = Corner;
},
{
name = _corner.round;
origin = (0,1);
type = Corner;
},
{
name = _corner.round;
origin = (0,2);
scale = (-1,1);
type = Corner;
},
{
name = _corner.round;
origin = (0,3);
type = Corner;
}
);
layerId = "997F8AB0-1B91-48A1-A6B5-F95345F1D981";
shapes = (
{
closed = 1;
nodes = (
(841,607,l),
(841,875,l),
(12,875,l),
(12,607,l)
);
},
{
ref = D;
}
);
width = 1537;
},
{
background = {
shapes = (
{
closed = 1;
nodes = (
(614,0,ls),
(1099,0,o),
(1388,290,o),
(1388,775,cs),
(1388,1218,o),
(1153,1483,o),
(632,1483,cs),
(315,1483,ls),
(278,1483,o),
(256,1456,o),
(256,1421,cs),
(256,63,ls),
(256,28,o),
(278,0,o),
(315,0,cs)
);
},
{
closed = 1;
nodes = (
(640,168,o),
(634,168,o),
(447,172,c),
(447,1309,l),
(560,1312,o),
(610,1313,o),
(662,1313,cs),
(997,1313,o),
(1181,1119,o),
(1181,775,cs),
(1181,387,o),
(1017,168,o),
(646,168,cs)
);
},
{
closed = 1;
nodes = (
(753,656,ls),
(761,656,o),
(767,662,o),
(767,679,cs),
(767,802,ls),
(767,811,o),
(761,815,o),
(753,815,cs),
(62,815,ls),
(55,815,o),
(49,811,o),
(49,803,cs),
(49,669,ls),
(49,660,o),
(55,656,o),
(62,656,cs)
);
}
);
};
guides = (
{
pos = (-30,647);
}
);
hints = (
{
name = _corner.round;
origin = (0,0);
scale = (-1,1);
type = Corner;
},
{
name = _corner.round;
origin = (0,1);
type = Corner;
},
{
name = _corner.round;
origin = (0,2);
scale = (-1,1);
type = Corner;
},
{
name = _corner.round;
origin = (0,3);
type = Corner;
}
);
layerId = m001;
shapes = (
{
closed = 1;
nodes = (
(718,656,l),
(718,814,l),
(49,814,l),
(49,656,l)
);
},
{
ref = D;
}
);
width = 1461;
},
{
background = {
shapes = (
{
closed = 1;
nodes = (
(644,0,ls),
(1147,0,o),
(1448,302,o),
(1448,800,cs),
(1448,1255,o),
(1202,1533,o),
(662,1533,cs),
(345,1533,ls),
(289,1533,o),
(256,1493,o),
(256,1446,cs),
(256,88,ls),
(256,41,o),
(289,0,o),
(345,0,cs)
);
},
{
closed = 1;
nodes = (
(670,218,o),
(664,218,o),
(507,221,cs),
(507,1310,l),
(599,1312,o),
(645,1313,o),
(692,1313,cs),
(1012,1313,o),
(1181,1128,o),
(1181,800,cs),
(1181,426,o),
(1030,218,o),
(676,218,cs)
);
},
{
closed = 1;
nodes = (
(783,656,l),
(807,656,o),
(827,672,o),
(827,704,cs),
(827,827,ls),
(827,849,o),
(807,865,o),
(783,865,cs),
(92,865,ls),
(69,865,o),
(49,849,o),
(49,828,cs),
(49,694,ls),
(49,672,o),
(69,656,o),
(92,656,cs)
);
}
);
};
guides = (
{
pos = (0,647);
}
);
hints = (
{
name = _corner.round;
origin = (0,0);
scale = (-1,1);
type = Corner;
},
{
name = _corner.round;
origin = (0,1);
type = Corner;
},
{
name = _corner.round;
origin = (0,2);
scale = (-1,1);
type = Corner;
},
{
name = _corner.round;
origin = (0,3);
type = Corner;
}
);
layerId = m002;
shapes = (
{
closed = 1;
nodes = (
(768,653,l),
(768,865,l),
(49,865,l),
(49,653,l)
);
},
{
ref = D;
}
);
width = 1518;
}
);
unicode = 208;
userData = {
KernOnName = Eth;
};
}
{
color = 6;
glyphname = ring;
layers = (
{
anchors = (
{
name = _top;
pos = (381,38);
}
);
layerId = "997F8AB0-1B91-48A1-A6B5-F95345F1D981";
shapes = (
{
closed = 1;
nodes = (
(551,1209,o),
(705,1336,o),
(705,1514,cs),
(705,1693,o),
(550,1818,o),
(382,1818,cs),
(209,1818,o),
(57,1693,o),
(57,1514,cs),
(57,1336,o),
(210,1209,o),
(382,1209,cs)
);
},
{
closed = 1;
nodes = (
(340,1437,o),
(300,1464,o),
(300,1514,cs),
(300,1563,o),
(340,1590,o),
(382,1590,cs),
(422,1590,o),
(462,1563,o),
(462,1514,cs),
(462,1464,o),
(422,1437,o),
(382,1437,cs)
);
}
);
width = 761;
},
{
anchors = (
{
name = _top;
pos = (341,0);
}
);
guides = (
{
angle = 90;
pos = (342,0);
}
);
layerId = m001;
shapes = (
{
closed = 1;
nodes = (
(476,1268,o),
(600,1372,o),
(600,1523,cs),
(600,1673,o),
(476,1776,o),
(342,1776,cs),
(205,1776,o),
(82,1674,o),
(82,1523,cs),
(82,1372,o),
(204,1268,o),
(342,1268,cs)
);
},
{
closed = 1;
nodes = (
(271,1383,o),
(195,1433,o),
(195,1523,cs),
(195,1611,o),
(271,1661,o),
(342,1661,cs),
(411,1661,o),
(487,1611,o),
(487,1523,cs),
(487,1433,o),
(411,1383,o),
(342,1383,cs)
);
}
);
width = 681;
},
{
anchors = (
{
name = _top;
pos = (341,0);
}
);
guides = (
{
angle = 90;
pos = (342,0);
}
);
layerId = m002;
shapes = (
{
closed = 1;
nodes = (
(490,1245,o),
(625,1360,o),
(625,1523,cs),
(625,1686,o),
(490,1799,o),
(342,1799,cs),
(190,1799,o),
(57,1686,o),
(57,1523,cs),
(57,1360,o),
(190,1245,o),
(342,1245,cs)
);
},
{
closed = 1;
nodes = (
(282,1406,o),
(220,1448,o),
(220,1523,cs),
(220,1596,o),
(282,1638,o),
(342,1638,cs),
(400,1638,o),
(462,1596,o),
(462,1523,cs),
(462,1448,o),
(400,1406,o),
(342,1406,cs)
);
}
);
width = 681;
}
);
unicode = 730;
userData = {
KernOnSpecialSpacing = {
L = NoKerning;
R = NoKerning;
};
};
}
{
color = 6;
glyphname = tildecomb;
layers = (
{
anchors = (
{
name = _top;
pos = (441,1128);
},
{
name = _top2;
pos = (441,1154);
},
{
name = top;
pos = (463,1640);
}
);
background = {
anchors = (
{
name = _top;
pos = (441,1128);
},
{
name = _top2;
pos = (441,1154);
},
{
name = top;
pos = (463,1640);
}
);
shapes = (
{
closed = 1;
nodes = (
(726,1307,o),
(781,1471,o),
(781,1566,cs),
(781,1600,o),
(766,1615,o),
(738,1624,cs),
(689,1640,ls),
(676,1644,o),
(664,1648,o),
(653,1648,cs),
(637,1648,o),
(625,1644,o),
(619,1624,cs),
(598,1552,o),
(582,1539,o),
(557,1539,cs),
(494,1539,o),
(465,1667,o),
(315,1667,cs),
(155,1667,o),
(100,1503,o),
(100,1408,cs),
(100,1374,o),
(115,1359,o),
(143,1350,cs),
(192,1334,ls),
(205,1330,o),
(217,1326,o),
(228,1326,cs),
(244,1326,o),
(256,1330,o),
(262,1350,cs),
(283,1422,o),
(299,1435,o),
(324,1435,cs),
(387,1435,o),
(416,1307,o),
(566,1307,cs)
);
}
);
};
layerId = "997F8AB0-1B91-48A1-A6B5-F95345F1D981";
shapes = (
{
closed = 1;
nodes = (
(726,1307,o),
(785,1479,o),
(785,1574,cs),
(785,1608,o),
(771,1626,o),
(742,1632,cs),
(693,1643,ls),
(679,1646,o),
(668,1648,o),
(657,1648,cs),
(641,1648,o),
(629,1644,o),
(623,1624,cs),
(602,1552,o),
(586,1535,o),
(561,1535,cs),
(498,1535,o),
(455,1667,o),
(305,1667,cs),
(155,1667,o),
(96,1495,o),
(96,1400,cs),
(96,1366,o),
(110,1348,o),
(139,1342,cs),
(188,1331,ls),
(202,1328,o),
(213,1326,o),
(224,1326,cs),
(240,1326,o),
(252,1330,o),
(258,1350,cs),
(279,1422,o),
(295,1439,o),
(320,1439,cs),
(383,1439,o),
(426,1307,o),
(576,1307,cs)
);
}
);
width = 922;
},
{
anchors = (
{
name = _top;
pos = (403,1128);
},
{
name = _top2;
pos = (403,1154);
},
{
name = top;
pos = (428,1652);
}
);
background = {
shapes = (
{
closed = 1;
nodes = (
(649,1329,o),
(718,1445,o),
(718,1534,cs),
(718,1545,o),
(714,1551,o),
(708,1553,cs),
(641,1576,ls),
(632,1579,o),
(626,1581,o),
(621,1581,cs),
(612,1581,o),
(607,1576,o),
(605,1569,cs),
(585,1475,o),
(557,1460,o),
(526,1460,cs),
(468,1460,o),
(406,1589,o),
(273,1589,cs),
(157,1589,o),
(88,1473,o),
(88,1384,cs),
(88,1373,o),
(92,1367,o),
(98,1365,cs),
(165,1342,ls),
(174,1339,o),
(181,1337,o),
(185,1337,cs),
(194,1337,o),
(199,1342,o),
(201,1350,cs),
(221,1443,o),
(249,1458,o),
(280,1458,cs),
(338,1458,o),
(400,1329,o),
(532,1329,cs)
);
},
{
closed = 1;
nodes = (
(645,1329,o),
(713,1473,o),
(713,1527,cs),
(713,1540,o),
(709,1545,o),
(701,1549,cs),
(653,1572,ls),
(642,1577,o),
(633,1582,o),
(625,1582,cs),
(617,1582,o),
(613,1576,o),
(609,1568,cs),
(569,1475,o),
(548,1460,o),
(525,1460,cs),
(465,1460,o),
(397,1589,o),
(265,1589,cs),
(152,1589,o),
(84,1445,o),
(84,1391,cs),
(84,1378,o),
(88,1373,o),
(96,1369,cs),
(144,1346,ls),
(155,1341,o),
(164,1336,o),
(172,1336,cs),
(180,1336,o),
(184,1342,o),
(188,1350,cs),
(228,1443,o),
(249,1458,o),
(272,1458,cs),
(332,1458,o),
(400,1329,o),
(532,1329,cs)
);
}
);
};
guides = (
{
angle = 90;
pos = (426,0);
}
);
layerId = m001;
shapes = (
{
closed = 1;
nodes = (
(654,1329,o),
(713,1475,o),
(713,1541,cs),
(713,1555,o),
(708,1563,o),
(696,1566,cs),
(642,1578,ls),
(634,1580,o),
(630,1581,o),
(625,1581,cs),
(614,1581,o),
(605,1574,o),
(602,1563,cs),
(578,1482,o),
(552,1460,o),
(527,1460,cs),
(465,1460,o),
(397,1589,o),
(265,1589,cs),
(143,1589,o),
(84,1443,o),
(84,1377,cs),
(84,1363,o),
(89,1355,o),
(101,1352,cs),
(155,1340,ls),
(163,1338,o),
(167,1337,o),
(172,1337,cs),
(183,1337,o),
(192,1344,o),
(195,1355,cs),
(219,1436,o),
(245,1458,o),
(270,1458,cs),
(332,1458,o),
(400,1329,o),
(532,1329,cs)
);
}
);
width = 852;
},
{
anchors = (
{
name = _top;
pos = (406,1128);
},
{
name = _top2;
pos = (406,1154);
},
{
name = top;
pos = (428,1652);
}
);
background = {
shapes = (
{
closed = 1;
nodes = (
(675,1332,o),
(747,1466,o),
(754,1568,cs),
(755,1586,o),
(750,1601,o),
(720,1612,cs),
(639,1640,o),
(646,1637,o),
(638,1637,cs),
(609,1637,o),
(605,1609,o),
(595,1579,cs),
(580,1533,o),
(552,1514,o),
(523,1514,cs),
(439,1514,o),
(423,1642,o),
(287,1642,cs),
(144,1642,o),
(81,1502,o),
(81,1434,cs),
(81,1412,o),
(86,1404,o),
(106,1395,cs),
(154,1373,ls),
(166,1367,o),
(175,1364,o),
(183,1364,cs),
(198,1364,o),
(205,1370,o),
(211,1382,cs),
(242,1444,o),
(256,1458,o),
(290,1458,cs),
(355,1458,o),
(399,1332,o),
(530,1332,cs)
);
},
{
closed = 1;
nodes = (
(667,1332,o),
(739,1468,o),
(747,1555,cs),
(749,1577,o),
(744,1585,o),
(724,1594,cs),
(667,1620,ls),
(655,1625,o),
(646,1630,o),
(636,1630,cs),
(623,1630,o),
(614,1623,o),
(610,1611,cs),
(586,1530,o),
(564,1511,o),
(529,1511,cs),
(459,1511,o),
(412,1642,o),
(284,1642,cs),
(144,1642,o),
(72,1506,o),
(64,1419,cs),
(62,1397,o),
(67,1389,o),
(87,1380,cs),
(144,1354,ls),
(156,1349,o),
(165,1344,o),
(175,1344,cs),
(188,1344,o),
(197,1351,o),
(201,1363,cs),
(225,1444,o),
(247,1463,o),
(282,1463,cs),
(352,1463,o),
(399,1332,o),
(527,1332,cs)
);
}
);
};
guides = (
{
angle = 90;
pos = (426,0);
}
);
layerId = m002;
shapes = (
{
closed = 1;
nodes = (
(667,1332,o),
(747,1487,o),
(747,1567,cs),
(747,1589,o),
(741,1601,o),
(720,1607,cs),
(667,1621,ls),
(646,1627,o),
(640,1628,o),
(635,1628,cs),
(619,1628,o),
(611,1623,o),
(603,1598,cs),
(584,1539,o),
(566,1511,o),
(533,1511,cs),
(461,1511,o),
(412,1642,o),
(284,1642,cs),
(144,1642,o),
(64,1487,o),
(64,1407,cs),
(64,1385,o),
(70,1373,o),
(91,1367,cs),
(144,1353,ls),
(165,1347,o),
(171,1346,o),
(176,1346,cs),
(192,1346,o),
(200,1351,o),
(208,1376,cs),
(227,1435,o),
(245,1463,o),
(278,1463,cs),
(350,1463,o),
(399,1332,o),
(527,1332,cs)
);
}
);
width = 852;
}
);
unicode = 771;
userData = {
KernOnSpecialSpacing = {
L = NoKerning;
R = NoKerning;
};
};
}
{
color = 6;
glyphname = dotaccentcomb;
layers = (
{
anchors = (
{
name = _top;
pos = (292,1128);
},
{
name = top;
pos = (292,1621);
}
);
background = {
shapes = (
{
closed = 1;
nodes = (
(404,1270,o),
(495,1354,o),
(495,1464,cs),
(495,1574,o),
(404,1657,o),
(292,1657,cs),
(179,1657,o),
(88,1574,o),
(88,1464,cs),
(88,1354,o),
(179,1270,o),
(292,1270,cs)
);
}
);
};
layerId = "997F8AB0-1B91-48A1-A6B5-F95345F1D981";
shapes = (
{
closed = 1;
nodes = (
(402,1280,o),
(491,1363,o),
(491,1472,cs),
(491,1580,o),
(402,1662,o),
(293,1662,cs),
(182,1662,o),
(93,1580,o),
(93,1472,cs),
(93,1363,o),
(182,1280,o),
(293,1280,cs)
);
}
);
width = 584;
},
{
anchors = (
{
name = _top;
pos = (257,1128);
},
{
name = top;
pos = (257,1631);
}
);
guides = (
{
pos = (0,1284);
},
{
angle = 90;
pos = (257,0);
}
);
layerId = m001;
shapes = (
{
closed = 1;
nodes = (
(330,1371,o),
(390,1429,o),
(390,1509,cs),
(390,1589,o),
(330,1646,o),
(257,1646,cs),
(183,1646,o),
(123,1589,o),
(123,1509,cs),
(123,1429,o),
(183,1371,o),
(257,1371,cs)
);
}
);
width = 513;
},
{
anchors = (
{
name = _top;
pos = (257,1128);
},
{
name = top;
pos = (257,1631);
}
);
guides = (
{
pos = (0,1284);
},
{
angle = 90;
pos = (257,0);
}
);
layerId = m002;
shapes = (
{
closed = 1;
nodes = (
(347,1321,o),
(420,1391,o),
(420,1484,cs),
(420,1577,o),
(347,1646,o),
(257,1646,cs),
(166,1646,o),
(93,1577,o),
(93,1484,cs),
(93,1391,o),
(166,1321,o),
(257,1321,cs)
);
}
);
width = 513;
}
);
unicode = 775;
userData = {
KernOnSpecialSpacing = {
L = NoKerning;
R = NoKerning;
};
};
}
{
color = 6;
glyphname = horncomb;
layers = (
{
anchors = (
{
name = _topright;
pos = (311,1128);
},
{
name = topright;
pos = (435,1543);
}
);
layerId = "997F8AB0-1B91-48A1-A6B5-F95345F1D981";
shapes = (
{
closed = 1;
nodes = (
(518,950,o),
(692,1064,o),
(692,1270,cs),
(692,1368,o),
(625,1497,o),
(457,1497,cs),
(355,1497,o),
(236,1458,o),
(236,1393,cs),
(236,1377,o),
(242,1347,o),
(251,1320,cs),
(267,1276,o),
(295,1237,o),
(340,1250,cs),
(361,1256,o),
(380,1258,o),
(394,1258,cs),
(417,1258,o),
(426,1234,o),
(426,1216,cs),
(426,1171,o),
(371,1128,o),
(337,1128,cs),
(236,1128,o),
(279,950,o),
(377,950,cs)
);
}
);
width = 680;
},
{
anchors = (
{
name = _topright;
pos = (241,1128);
},
{
name = topright;
pos = (395,1560);
}
);
layerId = m001;
shapes = (
{
closed = 1;
nodes = (
(459,1042,o),
(597,1138,o),
(597,1281,cs),
(597,1384,o),
(526,1467,o),
(397,1467,cs),
(328,1467,o),
(266,1443,o),
(266,1420,cs),
(266,1409,o),
(271,1385,o),
(278,1364,cs),
(286,1341,o),
(292,1330,o),
(292,1330,c),
(313,1336,o),
(331,1341,o),
(364,1341,cs),
(426,1341,o),
(461,1304,o),
(461,1256,cs),
(461,1175,o),
(376,1105,o),
(307,1105,cs),
(268,1105,o),
(341,1042,o),
(347,1042,cs)
);
}
);
width = 600;
},
{
anchors = (
{
name = _topright;
pos = (311,1128);
},
{
name = topright;
pos = (395,1560);
}
);
layerId = m002;
shapes = (
{
closed = 1;
nodes = (
(470,1019,o),
(622,1123,o),
(622,1281,cs),
(622,1395,o),
(541,1490,o),
(397,1490,cs),
(320,1490,o),
(241,1463,o),
(241,1420,cs),
(241,1407,o),
(246,1380,o),
(254,1356,cs),
(263,1331,o),
(278,1302,o),
(299,1308,cs),
(320,1314,o),
(335,1318,o),
(364,1318,cs),
(412,1318,o),
(436,1292,o),
(436,1256,cs),
(436,1188,o),
(362,1128,o),
(307,1128,cs),
(265,1128,o),
(300,1019,o),
(347,1019,cs)
);
}
);
width = 600;
}
);
unicode = 795;
userData = {
KernOnSpecialSpacing = {
L = NoKerning;
R = NoKerning;
};
};
}
{
color = 6;
glyphname = dotbelowcomb;
layers = (
{
anchors = (
{
name = _bottom;
pos = (297,0);
},
{
name = _dot;
pos = (297,-285);
},
{
name = bottom;
pos = (297,-424);
}
);
layerId = "997F8AB0-1B91-48A1-A6B5-F95345F1D981";
shapes = (
{
closed = 1;
nodes = (
(404,-482,o),
(491,-402,o),
(491,-297,cs),
(491,-191,o),
(404,-113,o),
(297,-113,cs),
(189,-113,o),
(102,-191,o),
(102,-297,cs),
(102,-402,o),
(189,-482,o),
(297,-482,cs)
);
}
);
width = 593;
},
{
anchors = (
{
name = _bottom;
pos = (257,0);
},
{
name = _dot;
pos = (257,-280);
},
{
name = bottom;
pos = (257,-424);
}
);
layerId = m001;
shapes = (
{
closed = 1;
nodes = (
(328,-419,o),
(386,-363,o),
(386,-288,cs),
(386,-213,o),
(328,-158,o),
(257,-158,cs),
(185,-158,o),
(127,-213,o),
(127,-288,cs),
(127,-363,o),
(185,-419,o),
(257,-419,cs)
);
}
);
width = 513;
},
{
anchors = (
{
name = _bottom;
pos = (257,0);
},
{
name = _dot;
pos = (257,-280);
},
{
name = bottom;
pos = (257,-424);
}
);
layerId = m002;
shapes = (
{
closed = 1;
nodes = (
(342,-442,o),
(411,-376,o),
(411,-288,cs),
(411,-200,o),
(342,-135,o),
(257,-135,cs),
(171,-135,o),
(102,-200,o),
(102,-288,cs),
(102,-376,o),
(171,-442,o),
(257,-442,cs)
);
}
);
width = 513;
}
);
unicode = 803;
userData = {
KernOnSpecialSpacing = {
L = NoKerning;
R = NoKerning;
};
};
}
{
color = 6;
glyphname = pi;
layers = (
{
background = {
shapes = (
{
closed = 1;
nodes = (
(1244,-16,o),
(1323,-3,o),
(1392,56,cs),
(1411,72,o),
(1421,88,o),
(1421,111,cs),
(1421,133,o),
(1404,164,o),
(1384,207,cs),
(1367,244,o),
(1348,253,o),
(1330,253,cs),
(1310,253,o),
(1269,229,o),
(1242,229,cs),
(1226,229,o),
(1211,239,o),
(1211,274,cs),
(1211,890,l),
(1358,890,ls),
(1393,890,o),
(1422,913,o),
(1422,945,cs),
(1422,1071,ls),
(1422,1105,o),
(1393,1128,o),
(1358,1128,cs),
(106,1128,ls),
(72,1128,o),
(43,1105,o),
(43,1072,cs),
(43,946,ls),
(43,913,o),
(72,890,o),
(106,890,cs),
(260,890,l),
(260,84,ls),
(260,35,o),
(295,0,o),
(342,0,cs),
(451,0,ls),
(505,0,o),
(543,30,o),
(543,84,cs),
(543,890,l),
(931,890,l),
(931,281,ls),
(931,59,o),
(1026,-16,o),
(1171,-16,cs)
);
}
);
};
hints = (
{
name = _corner.round;
origin = (0,24);
type = Corner;
},
{
name = _corner.round;
origin = (0,25);
scale = (-1,1);
type = Corner;
},
{
name = _corner.round;
origin = (0,19);
scale = (-1,1);
type = Corner;
},
{
name = _corner.round;
origin = (0,21);
scale = (-1,1);
type = Corner;
},
{
name = _corner.round;
origin = (0,22);
type = Corner;
},
{
name = _corner.round;
origin = (0,20);
type = Corner;
}
);
layerId = "997F8AB0-1B91-48A1-A6B5-F95345F1D981";
shapes = (
{
closed = 1;
nodes = (
(1284,-16,o),
(1353,22,o),
(1392,56,cs),
(1411,72,o),
(1421,88,o),
(1421,111,cs),
(1421,133,o),
(1404,188,o),
(1384,231,cs),
(1367,268,o),
(1348,277,o),
(1330,277,cs),
(1310,277,o),
(1279,250,o),
(1245,250,cs),
(1216,250,o),
(1201,263,o),
(1201,308,cs),
(1201,859,l),
(1422,859,l),
(1422,1128,l),
(43,1128,l),
(43,859,l),
(243,859,l),
(243,0,l),
(563,0,l),
(563,859,l),
(881,859,l),
(881,321,ls),
(881,59,o),
(1016,-16,o),
(1151,-16,cs)
);
}
);
width = 1501;
},
{
background = {
shapes = (
{
closed = 1;
nodes = (
(1192,-17,o),
(1257,-1,o),
(1316,48,cs),
(1327,57,o),
(1334,67,o),
(1334,78,cs),
(1334,95,o),
(1323,118,o),
(1301,162,cs),
(1294,175,o),
(1287,178,o),
(1274,178,cs),
(1259,178,o),
(1230,147,o),
(1184,147,cs),
(1148,147,o),
(1114,165,o),
(1114,250,cs),
(1114,952,l),
(1305,952,ls),
(1322,952,o),
(1336,963,o),
(1336,977,cs),
(1336,1102,ls),
(1336,1116,o),
(1323,1128,o),
(1305,1128,cs),
(97,1128,ls),
(80,1128,o),
(67,1116,o),
(67,1103,cs),
(67,978,ls),
(67,964,o),
(80,952,o),
(97,952,cs),
(284,952,l),
(284,51,ls),
(284,20,o),
(301,0,o),
(326,0,cs),
(435,0,ls),
(455,0,o),
(470,20,o),
(470,51,cs),
(470,952,l),
(928,952,l),
(928,237,ls),
(928,47,o),
(1025,-17,o),
(1147,-17,cs)
);
}
);
};
guides = (
{
pos = (-30,922);
}
);
hints = (
{
name = _corner.round;
origin = (0,24);
type = Corner;
},
{
name = _corner.round;
origin = (0,25);
scale = (-1,1);
type = Corner;
},
{
name = _corner.round;
origin = (0,19);
scale = (-1,1);
type = Corner;
},
{
name = _corner.round;
origin = (0,21);
scale = (-1,1);
type = Corner;
},
{
name = _corner.round;
origin = (0,22);
type = Corner;
},
{
name = _corner.round;
origin = (0,20);
type = Corner;
}
);
layerId = m001;
shapes = (
{
closed = 1;
nodes = (
(1183,-17,o),
(1248,-1,o),
(1307,48,cs),
(1318,57,o),
(1325,67,o),
(1325,78,cs),
(1325,95,o),
(1314,120,o),
(1292,168,cs),
(1287,181,o),
(1279,185,o),
(1269,185,cs),
(1247,185,o),
(1221,147,o),
(1175,147,cs),
(1139,147,o),
(1105,165,o),
(1105,250,cs),
(1105,972,l),
(1327,972,l),
(1327,1128,l),
(67,1128,l),
(67,972,l),
(284,972,l),
(284,0,l),
(467,0,l),
(467,972,l),
(922,972,l),
(922,237,ls),
(922,47,o),
(1013,-17,o),
(1138,-17,cs)
);
}
);
width = 1473;
},
{
background = {
shapes = (
{
closed = 1;
nodes = (
(1253,-17,o),
(1327,1,o),
(1391,54,cs),
(1408,68,o),
(1420,84,o),
(1420,103,cs),
(1420,129,o),
(1388,188,o),
(1383,201,cs),
(1374,222,o),
(1362,230,o),
(1347,230,cs),
(1325,230,o),
(1285,204,o),
(1255,204,cs),
(1228,204,o),
(1205,221,o),
(1205,275,cs),
(1205,922,l),
(1372,922,ls),
(1396,922,o),
(1416,938,o),
(1416,959,cs),
(1416,1090,ls),
(1416,1112,o),
(1396,1128,o),
(1372,1128,cs),
(120,1128,ls),
(97,1128,o),
(77,1112,o),
(77,1091,cs),
(77,960,ls),
(77,938,o),
(97,922,o),
(120,922,cs),
(294,922,l),
(294,66,ls),
(294,29,o),
(318,0,o),
(356,0,cs),
(465,0,ls),
(515,0,o),
(537,29,o),
(537,66,cs),
(537,922,l),
(962,922,l),
(962,282,ls),
(962,57,o),
(1050,-17,o),
(1183,-17,cs)
);
}
);
};
guides = (
{
pos = (0,922);
}
);
hints = (
{
name = _corner.round;
origin = (0,24);
type = Corner;
},
{
name = _corner.round;
origin = (0,25);
scale = (-1,1);
type = Corner;
},
{
name = _corner.round;
origin = (0,19);
scale = (-1,1);
type = Corner;
},
{
name = _corner.round;
origin = (0,21);
scale = (-1,1);
type = Corner;
},
{
name = _corner.round;
origin = (0,22);
type = Corner;
},
{
name = _corner.round;
origin = (0,20);
type = Corner;
}
);
layerId = m002;
shapes = (
{
closed = 1;
nodes = (
(1253,-17,o),
(1327,1,o),
(1391,54,cs),
(1408,68,o),
(1420,84,o),
(1420,103,cs),
(1420,129,o),
(1388,188,o),
(1383,201,cs),
(1374,222,o),
(1362,230,o),
(1347,230,cs),
(1325,230,o),
(1285,204,o),
(1255,204,cs),
(1228,204,o),
(1205,221,o),
(1205,275,cs),
(1205,922,l),
(1416,922,l),
(1416,1128,l),
(77,1128,l),
(77,922,l),
(294,922,l),
(294,0,l),
(537,0,l),
(537,922,l),
(962,922,l),
(962,282,ls),
(962,57,o),
(1050,-17,o),
(1183,-17,cs)
);
}
);
width = 1533;
}
);
unicode = 960;
}
{
color = 6;
glyphname = quotesinglbase;
layers = (
{
background = {
shapes = (
{
closed = 1;
nodes = (
(172,292,o),
(100,220,o),
(100,122,cs),
(100,46,o),
(139,-20,o),
(248,-36,c),
(229,-100,o),
(197,-160,o),
(142,-223,cs),
(126,-241,o),
(116,-252,o),
(116,-272,cs),
(116,-283,o),
(120,-298,o),
(136,-312,cs),
(174,-344,ls),
(191,-359,o),
(206,-363,o),
(220,-363,cs),
(249,-363,o),
(280,-329,o),
(321,-280,cs),
(404,-183,o),
(467,-57,o),
(467,64,cs),
(467,199,o),
(390,292,o),
(279,292,cs)
);
}
);
};
layerId = "997F8AB0-1B91-48A1-A6B5-F95345F1D981";
shapes = (
{
closed = 1;
nodes = (
(162,292,o),
(103,213,o),
(103,128,cs),
(103,48,o),
(155,-16,o),
(262,-27,c),
(247,-104,o),
(202,-162,o),
(130,-231,cs),
(113,-247,o),
(108,-257,o),
(108,-270,cs),
(108,-284,o),
(117,-297,o),
(132,-312,cs),
(164,-344,ls),
(181,-361,o),
(192,-363,o),
(203,-363,cs),
(235,-363,o),
(272,-329,o),
(313,-280,cs),
(412,-164,o),
(468,-41,o),
(468,69,cs),
(468,196,o),
(406,292,o),
(281,292,cs)
);
}
);
width = 570;
},
{
background = {
shapes = (
{
closed = 1;
nodes = (
(135,198,o),
(83,136,o),
(83,73,cs),
(83,-6,o),
(139,-56,o),
(211,-55,c),
(208,-117,o),
(167,-172,o),
(92,-241,cs),
(81,-251,o),
(80,-258,o),
(80,-266,cs),
(80,-272,o),
(81,-277,o),
(87,-285,cs),
(113,-317,ls),
(122,-329,o),
(127,-333,o),
(138,-333,cs),
(155,-333,o),
(206,-299,o),
(263,-229,cs),
(312,-169,o),
(360,-80,o),
(360,28,cs),
(360,132,o),
(305,198,o),
(209,198,cs)
);
}
);
};
guides = (
{
angle = 90;
pos = (385,0);
}
);
layerId = m001;
shapes = (
{
closed = 1;
nodes = (
(141,192,o),
(89,137,o),
(89,67,cs),
(89,-6,o),
(145,-56,o),
(221,-55,c),
(218,-117,o),
(174,-166,o),
(92,-241,cs),
(80,-252,o),
(79,-258,o),
(79,-266,cs),
(79,-272,o),
(81,-277,o),
(87,-285,cs),
(113,-317,ls),
(122,-329,o),
(127,-333,o),
(138,-333,cs),
(155,-333,o),
(206,-295,o),
(263,-225,cs),
(312,-165,o),
(357,-80,o),
(357,8,cs),
(357,126,o),
(295,192,o),
(215,192,cs)
);
}
);
width = 451;
},
{
background = {
shapes = (
{
closed = 1;
nodes = (
(170,261,o),
(103,201,o),
(103,108,cs),
(103,37,o),
(150,-19,o),
(246,-25,c),
(231,-93,o),
(192,-157,o),
(125,-216,cs),
(116,-224,o),
(111,-235,o),
(111,-247,cs),
(111,-257,o),
(115,-268,o),
(127,-278,cs),
(149,-297,ls),
(161,-307,o),
(174,-312,o),
(188,-312,cs),
(208,-312,o),
(228,-300,o),
(247,-281,cs),
(378,-154,o),
(414,-29,o),
(414,75,cs),
(414,188,o),
(344,261,o),
(252,261,cs)
);
}
);
};
guides = (
{
angle = 90;
pos = (415,0);
}
);
layerId = m002;
shapes = (
{
closed = 1;
nodes = (
(172,259,o),
(108,205,o),
(108,127,cs),
(108,44,o),
(164,-2,o),
(247,-8,c),
(245,-96,o),
(195,-164,o),
(138,-215,cs),
(121,-230,o),
(115,-238,o),
(115,-251,cs),
(115,-260,o),
(118,-267,o),
(131,-282,cs),
(152,-307,ls),
(162,-319,o),
(173,-326,o),
(186,-326,cs),
(205,-326,o),
(218,-317,o),
(240,-295,cs),
(378,-162,o),
(414,-37,o),
(414,75,cs),
(414,188,o),
(344,259,o),
(252,259,cs)
);
}
);
width = 511;
}
);
unicode = 8218;
userData = {
KernOnSpecialSpacing = {
L = quotes;
R = quotes;
};
};
}
{
color = 10;
glyphname = quotedblright;
layers = (
{
background = {
shapes = (
{
closed = 1;
nodes = (
(526,1738,o),
(454,1666,o),
(454,1568,cs),
(454,1492,o),
(493,1426,o),
(602,1410,c),
(583,1346,o),
(551,1286,o),
(496,1223,cs),
(480,1205,o),
(470,1194,o),
(470,1174,cs),
(470,1163,o),
(474,1148,o),
(490,1134,cs),
(528,1102,ls),
(545,1087,o),
(560,1083,o),
(574,1083,cs),
(603,1083,o),
(634,1117,o),
(675,1166,cs),
(758,1263,o),
(821,1389,o),
(821,1510,cs),
(821,1645,o),
(744,1738,o),
(633,1738,cs)
);
},
{
closed = 1;
nodes = (
(87,1738,o),
(15,1666,o),
(15,1568,cs),
(15,1492,o),
(54,1426,o),
(163,1410,c),
(144,1346,o),
(112,1286,o),
(57,1223,cs),
(41,1205,o),
(31,1194,o),
(31,1174,cs),
(31,1163,o),
(35,1148,o),
(51,1134,cs),
(89,1102,ls),
(106,1087,o),
(121,1083,o),
(135,1083,cs),
(164,1083,o),
(195,1117,o),
(236,1166,cs),
(319,1263,o),
(382,1389,o),
(382,1510,cs),
(382,1645,o),
(305,1738,o),
(194,1738,cs)
);
}
);
};
layerId = "997F8AB0-1B91-48A1-A6B5-F95345F1D981";
shapes = (
{
pos = (0,1472);
ref = quotedblbase;
}
);
width = 1037;
},
{
background = {
shapes = (
{
closed = 1;
nodes = (
(536,1694,o),
(474,1642,o),
(474,1559,cs),
(474,1490,o),
(528,1432,o),
(621,1436,c),
(604,1347,o),
(569,1303,o),
(499,1240,cs),
(488,1230,o),
(484,1227,o),
(484,1220,cs),
(484,1213,o),
(487,1208,o),
(492,1201,cs),
(514,1170,ls),
(516,1166,o),
(518,1163,o),
(524,1163,cs),
(539,1163,o),
(597,1197,o),
(654,1267,cs),
(703,1327,o),
(751,1416,o),
(751,1524,cs),
(751,1628,o),
(696,1694,o),
(608,1694,cs)
);
},
{
closed = 1;
nodes = (
(97,1694,o),
(35,1642,o),
(35,1559,cs),
(35,1490,o),
(89,1432,o),
(182,1436,c),
(165,1347,o),
(130,1303,o),
(60,1240,cs),
(49,1230,o),
(45,1227,o),
(45,1220,cs),
(45,1213,o),
(48,1208,o),
(53,1201,cs),
(75,1170,ls),
(77,1166,o),
(79,1163,o),
(85,1163,cs),
(100,1163,o),
(158,1197,o),
(215,1267,cs),
(264,1327,o),
(312,1416,o),
(312,1524,cs),
(312,1628,o),
(257,1694,o),
(169,1694,cs)
);
}
);
};
layerId = m001;
shapes = (
{
pos = (0,1575);
ref = quotedblbase;
}
);
width = 838;
},
{
background = {
shapes = (
{
closed = 1;
nodes = (
(561,1691,o),
(497,1639,o),
(497,1556,cs),
(497,1475,o),
(541,1419,o),
(633,1413,c),
(624,1362,o),
(588,1304,o),
(530,1244,cs),
(521,1235,o),
(513,1223,o),
(513,1207,cs),
(513,1197,o),
(516,1185,o),
(528,1175,cs),
(550,1156,ls),
(562,1146,o),
(572,1141,o),
(581,1141,cs),
(614,1141,o),
(662,1184,o),
(706,1244,cs),
(762,1318,o),
(805,1409,o),
(805,1507,cs),
(805,1618,o),
(735,1691,o),
(643,1691,cs)
);
},
{
closed = 1;
nodes = (
(122,1691,o),
(58,1639,o),
(58,1556,cs),
(58,1475,o),
(102,1419,o),
(194,1413,c),
(185,1362,o),
(149,1304,o),
(91,1244,cs),
(82,1235,o),
(74,1223,o),
(74,1207,cs),
(74,1197,o),
(77,1185,o),
(89,1175,cs),
(111,1156,ls),
(123,1146,o),
(133,1141,o),
(142,1141,cs),
(175,1141,o),
(223,1184,o),
(267,1244,cs),
(323,1318,o),
(366,1409,o),
(366,1507,cs),
(366,1618,o),
(296,1691,o),
(204,1691,cs)
);
}
);
};
layerId = m002;
shapes = (
{
pos = (0,1512);
ref = quotedblbase;
}
);
width = 920;
}
);
metricLeft = "=quotedblbase";
metricRight = "=quotedblbase";
unicode = 8221;
userData = {
KernOnName = quotedblright;
KernOnSpecialSpacing = {
L = quotes;
R = quotes;
};
};
}
{
color = 6;
glyphname = dagger;
layers = (
{
background = {
hints = (
{
name = _corner.round;
origin = (0,0);
scale = (-1,1);
type = Corner;
},
{
name = _corner.round;
origin = (0,1);
type = Corner;
},
{
name = _corner.round;
origin = (0,2);
scale = (-1,1);
type = Corner;
},
{
name = _corner.round;
origin = (0,3);
type = Corner;
}
);
shapes = (
{
closed = 1;
nodes = (
(793,-357,l),
(793,1748,l),
(498,1748,l),
(498,-357,l)
);
},
{
closed = 1;
nodes = (
(628,877,l),
(1078,858,ls),
(1132,854,o),
(1176,893,o),
(1176,940,cs),
(1176,1048,ls),
(1176,1096,o),
(1133,1133,o),
(1078,1131,cs),
(645,1111,l),
(214,1131,ls),
(160,1133,o),
(117,1096,o),
(117,1049,cs),
(117,941,ls),
(117,894,o),
(160,854,o),
(214,858,cs)
);
}
);
};
hints = (
{
name = _corner.round;
origin = (0,3);
type = Corner;
},
{
name = _corner.round;
origin = (0,0);
scale = (-1,1);
type = Corner;
},
{
name = _corner.round;
origin = (0,2);
scale = (-1,1);
type = Corner;
},
{
name = _corner.round;
origin = (0,1);
type = Corner;
},
{
name = _corner.round;
origin = (1,8);
scale = (-1,1);
type = Corner;
},
{
name = _corner.round;
origin = (1,9);
type = Corner;
},
{
name = _corner.round;
origin = (1,4);
scale = (-1,1);
type = Corner;
},
{
name = _corner.round;
origin = (1,3);
type = Corner;
}
);
layerId = "997F8AB0-1B91-48A1-A6B5-F95345F1D981";
shapes = (
{
closed = 1;
nodes = (
(793,-357,l),
(793,1748,l),
(498,1748,l),
(498,-357,l)
);
},
{
closed = 1;
nodes = (
(244,855,l),
(645,874,l),
(1046,855,l),
(1173,855,l),
(1173,1128,l),
(1046,1128,l),
(645,1108,l),
(244,1128,l),
(117,1128,l),
(117,855,l)
);
}
);
width = 1293;
},
{
background = {
shapes = (
{
closed = 1;
nodes = (
(617,-299,ls),
(629,-299,o),
(643,-283,o),
(643,-260,cs),
(643,973,l),
(1002,957,ls),
(1015,956,o),
(1026,967,o),
(1026,980,cs),
(1026,1091,ls),
(1026,1105,o),
(1014,1115,o),
(1001,1115,cs),
(643,1099,l),
(643,1707,ls),
(643,1730,o),
(629,1746,o),
(618,1746,cs),
(514,1746,ls),
(502,1746,o),
(488,1730,o),
(488,1707,cs),
(488,1099,l),
(131,1115,ls),
(119,1115,o),
(107,1105,o),
(107,1092,cs),
(107,981,ls),
(107,967,o),
(118,956,o),
(130,957,cs),
(488,975,l),
(488,-260,ls),
(488,-283,o),
(502,-299,o),
(513,-299,cs)
);
}
);
};
hints = (
{
name = _corner.round;
origin = (0,3);
type = Corner;
},
{
name = _corner.round;
origin = (0,0);
scale = (-1,1);
type = Corner;
},
{
name = _corner.round;
origin = (0,2);
scale = (-1,1);
type = Corner;
},
{
name = _corner.round;
origin = (0,1);
type = Corner;
},
{
name = _corner.round;
origin = (1,8);
scale = (-1,1);
type = Corner;
},
{
name = _corner.round;
origin = (1,9);
type = Corner;
},
{
name = _corner.round;
origin = (1,4);
scale = (-1,1);
type = Corner;
},
{
name = _corner.round;
origin = (1,3);
type = Corner;
}
);
layerId = m001;
shapes = (
{
closed = 1;
nodes = (
(643,-298,l),
(643,1748,l),
(488,1748,l),
(488,-298,l)
);
},
{
closed = 1;
nodes = (
(161,970,l),
(566,992,l),
(970,970,l),
(1024,970,l),
(1024,1128,l),
(970,1128,l),
(566,1108,l),
(161,1128,l),
(107,1128,l),
(107,970,l)
);
}
);
width = 1133;
},
{
background = {
hints = (
{
name = _corner.round;
origin = (0,0);
scale = (-1,1);
type = Corner;
},
{
name = _corner.round;
origin = (0,1);
type = Corner;
},
{
name = _corner.round;
origin = (0,2);
scale = (-1,1);
type = Corner;
},
{
name = _corner.round;
origin = (0,3);
type = Corner;
}
);
shapes = (
{
closed = 1;
nodes = (
(703,-321,l),
(703,1748,l),
(488,1748,l),
(488,-321,l)
);
},
{
closed = 1;
nodes = (
(581,953,l),
(1030,932,l),
(1061,930,o),
(1086,954,o),
(1086,980,cs),
(1086,1091,ls),
(1086,1118,o),
(1061,1141,o),
(1030,1140,cs),
(595,1120,l),
(162,1140,ls),
(132,1141,o),
(107,1118,o),
(107,1092,cs),
(107,981,ls),
(107,954,o),
(132,930,o),
(162,932,cs)
);
}
);
};
hints = (
{
name = _corner.round;
origin = (0,3);
type = Corner;
},
{
name = _corner.round;
origin = (0,0);
scale = (-1,1);
type = Corner;
},
{
name = _corner.round;
origin = (0,2);
scale = (-1,1);
type = Corner;
},
{
name = _corner.round;
origin = (0,1);
type = Corner;
},
{
name = _corner.round;
origin = (1,8);
scale = (-1,1);
type = Corner;
},
{
name = _corner.round;
origin = (1,9);
type = Corner;
},
{
name = _corner.round;
origin = (1,4);
scale = (-1,1);
type = Corner;
},
{
name = _corner.round;
origin = (1,3);
type = Corner;
}
);
layerId = m002;
shapes = (
{
closed = 1;
nodes = (
(703,-321,l),
(703,1748,l),
(488,1748,l),
(488,-321,l)
);
},
{
closed = 1;
nodes = (
(190,920,l),
(595,941,l),
(1000,920,l),
(1083,920,l),
(1083,1128,l),
(1000,1128,l),
(595,1108,l),
(190,1128,l),
(107,1128,l),
(107,920,l)
);
}
);
width = 1193;
}
);
unicode = 8224;
}
{
color = 6;
glyphname = fraction;
layers = (
{
background = {
shapes = (
{
closed = 1;
nodes = (
(-185,-74,o),
(-158,-51,o),
(-137,-23,cs),
(896,1395,ls),
(911,1415,o),
(919,1435,o),
(919,1458,cs),
(919,1491,o),
(902,1517,o),
(872,1535,cs),
(799,1580,ls),
(781,1591,o),
(761,1595,o),
(745,1595,cs),
(710,1595,o),
(678,1576,o),
(656,1547,cs),
(-381,129,ls),
(-395,110,o),
(-402,91,o),
(-402,71,cs),
(-402,39,o),
(-384,11,o),
(-354,-9,cs),
(-292,-52,ls),
(-268,-68,o),
(-242,-74,o),
(-225,-74,cs)
);
}
);
};
layerId = "997F8AB0-1B91-48A1-A6B5-F95345F1D981";
shapes = (
{
closed = 1;
nodes = (
(-226,-64,o),
(-202,-44,o),
(-182,-17,cs),
(851,1401,ls),
(865,1420,o),
(872,1437,o),
(872,1458,cs),
(872,1487,o),
(857,1510,o),
(830,1526,cs),
(757,1571,ls),
(741,1581,o),
(723,1585,o),
(708,1585,cs),
(676,1585,o),
(648,1569,o),
(627,1541,cs),
(-410,123,ls),
(-423,105,o),
(-429,89,o),
(-429,71,cs),
(-429,43,o),
(-413,18,o),
(-385,-1,cs),
(-323,-44,ls),
(-302,-58,o),
(-278,-64,o),
(-262,-64,cs)
);
}
);
width = 400;
},
{
background = {
shapes = (
{
closed = 1;
nodes = (
(-399,40,o),
(-410,57,o),
(-410,75,cs),
(-410,85,o),
(-407,96,o),
(-399,107,cs),
(638,1582,ls),
(650,1599,o),
(666,1613,o),
(687,1613,cs),
(695,1613,o),
(705,1611,o),
(715,1605,cs),
(788,1558,ls),
(803,1549,o),
(811,1534,o),
(811,1517,cs),
(811,1505,o),
(807,1492,o),
(798,1480,cs),
(-235,5,ls),
(-247,-11,o),
(-261,-29,o),
(-283,-29,cs),
(-294,-29,o),
(-307,-25,o),
(-322,-14,cs),
(-381,28,ls)
);
}
);
};
layerId = m001;
shapes = (
{
closed = 1;
nodes = (
(-308,-4,o),
(-301,4,o),
(-289,20,cs),
(744,1495,ls),
(748,1500,o),
(751,1509,o),
(751,1517,cs),
(751,1527,o),
(747,1534,o),
(742,1537,cs),
(669,1584,ls),
(664,1587,o),
(661,1588,o),
(657,1588,cs),
(650,1588,o),
(643,1582,o),
(633,1568,cs),
(-405,92,ls),
(-408,88,o),
(-410,81,o),
(-410,75,cs),
(-410,64,o),
(-403,55,o),
(-394,49,cs),
(-334,6,ls),
(-323,-2,o),
(-318,-4,o),
(-313,-4,cs)
);
}
);
width = 341;
},
{
layerId = m002;
shapes = (
{
closed = 1;
nodes = (
(-243,-29,o),
(-229,-11,o),
(-217,5,cs),
(816,1480,ls),
(825,1492,o),
(829,1505,o),
(829,1517,cs),
(829,1534,o),
(821,1549,o),
(806,1558,cs),
(733,1605,ls),
(723,1611,o),
(713,1613,o),
(705,1613,cs),
(684,1613,o),
(668,1599,o),
(656,1582,cs),
(-381,107,ls),
(-389,96,o),
(-392,85,o),
(-392,75,cs),
(-392,57,o),
(-381,40,o),
(-363,28,cs),
(-304,-14,ls),
(-289,-25,o),
(-276,-29,o),
(-265,-29,cs)
);
}
);
width = 394;
}
);
unicode = 8260;
userData = {
KernOnSpecialSpacing = {
L = fraction;
R = fraction;
};
};
}
{
color = 6;
glyphname = foursuperior;
layers = (
{
background = {
shapes = (
{
closed = 1;
nodes = (
(791,815,ls),
(833,815,o),
(876,853,o),
(876,911,cs),
(876,1001,l),
(924,1001,ls),
(976,1001,o),
(1015,1032,o),
(1015,1092,cs),
(1015,1133,ls),
(1015,1187,o),
(989,1213,o),
(933,1223,cs),
(877,1233,l),
(877,1698,ls),
(877,1816,o),
(826,1842,o),
(741,1842,cs),
(708,1842,ls),
(667,1842,o),
(623,1837,o),
(560,1766,cs),
(88,1232,ls),
(59,1199,o),
(50,1166,o),
(50,1132,cs),
(50,1046,o),
(128,1000,o),
(174,1000,cs),
(617,1000,l),
(617,912,ls),
(617,851,o),
(656,815,o),
(699,815,cs)
);
},
{
closed = 1;
nodes = (
(674,1528,l),
(620,1517,l),
(620,1246,l),
(407,1246,l)
);
}
);
};
hints = (
{
name = _corner.round;
origin = (0,17);
type = Corner;
},
{
name = _corner.round;
origin = (0,2);
scale = (-1,1);
type = Corner;
},
{
name = _corner.round;
origin = (0,0);
scale = (-1,1);
type = Corner;
},
{
name = _corner.round;
origin = (0,19);
type = Corner;
},
{
name = _corner.round;
origin = (0,8);
type = Corner;
}
);
layerId = "997F8AB0-1B91-48A1-A6B5-F95345F1D981";
shapes = (
{
closed = 1;
nodes = (
(876,815,l),
(876,1001,l),
(1015,1001,l),
(1015,1133,ls),
(1015,1187,o),
(989,1213,o),
(933,1223,cs),
(877,1233,l),
(877,1842,l),
(708,1842,ls),
(667,1842,o),
(623,1837,o),
(560,1766,cs),
(88,1232,ls),
(59,1199,o),
(50,1166,o),
(50,1132,cs),
(50,1000,l),
(617,1000,l),
(617,815,l)
);
},
{
closed = 1;
nodes = (
(674,1528,l),
(620,1517,l),
(620,1246,l),
(407,1246,l)
);
}
);
width = 1000;
},
{
background = {
shapes = (
{
closed = 1;
nodes = (
(703,880,ls),
(712,880,o),
(725,894,o),
(725,914,cs),
(725,1079,l),
(836,1079,ls),
(858,1079,o),
(864,1088,o),
(864,1108,cs),
(864,1153,ls),
(864,1173,o),
(861,1176,o),
(837,1180,cs),
(726,1201,l),
(726,1755,ls),
(726,1839,o),
(702,1841,o),
(653,1841,cs),
(620,1841,ls),
(590,1841,o),
(568,1837,o),
(523,1785,cs),
(54,1221,ls),
(34,1199,o),
(25,1175,o),
(25,1152,cs),
(25,1108,o),
(62,1078,o),
(86,1078,cs),
(592,1078,l),
(592,915,ls),
(592,893,o),
(603,880,o),
(611,880,cs)
);
},
{
closed = 1;
nodes = (
(622,1745,l),
(592,1751,l),
(592,1206,l),
(179,1206,l)
);
}
);
};
hints = (
{
name = _corner.round;
origin = (0,17);
type = Corner;
},
{
name = _corner.round;
origin = (0,2);
scale = (-1,1);
type = Corner;
},
{
name = _corner.round;
origin = (0,0);
scale = (-1,1);
type = Corner;
},
{
name = _corner.round;
origin = (0,19);
type = Corner;
},
{
name = _corner.round;
origin = (0,8);
type = Corner;
}
);
layerId = m001;
shapes = (
{
closed = 1;
nodes = (
(725,880,l),
(725,1079,l),
(864,1079,l),
(864,1153,ls),
(864,1173,o),
(861,1176,o),
(837,1180,cs),
(726,1201,l),
(726,1841,l),
(620,1841,ls),
(590,1841,o),
(568,1837,o),
(523,1785,cs),
(54,1221,ls),
(34,1199,o),
(25,1175,o),
(25,1152,cs),
(25,1078,l),
(592,1078,l),
(592,880,l)
);
},
{
closed = 1;
nodes = (
(622,1745,l),
(592,1751,l),
(592,1206,l),
(179,1206,l)
);
}
);
width = 876;
},
{
background = {
shapes = (
{
closed = 1;
nodes = (
(795,855,ls),
(822,855,o),
(847,881,o),
(847,914,cs),
(847,1054,l),
(928,1054,ls),
(972,1054,o),
(986,1080,o),
(986,1108,cs),
(986,1153,ls),
(986,1184,o),
(974,1198,o),
(934,1205,cs),
(848,1221,l),
(848,1755,ls),
(848,1865,o),
(795,1866,o),
(745,1866,cs),
(712,1866,ls),
(678,1866,o),
(644,1861,o),
(592,1801,cs),
(122,1236,ls),
(96,1207,o),
(87,1179,o),
(87,1152,cs),
(87,1094,o),
(138,1053,o),
(178,1053,cs),
(654,1053,l),
(654,915,ls),
(654,881,o),
(675,855,o),
(703,855,cs)
);
},
{
closed = 1;
nodes = (
(728,1715,l),
(656,1741,l),
(656,1231,l),
(328,1231,l)
);
}
);
};
hints = (
{
name = _corner.round;
origin = (0,17);
type = Corner;
},
{
name = _corner.round;
origin = (0,2);
scale = (-1,1);
type = Corner;
},
{
name = _corner.round;
origin = (0,0);
scale = (-1,1);
type = Corner;
},
{
name = _corner.round;
origin = (0,19);
type = Corner;
},
{
name = _corner.round;
origin = (0,8);
type = Corner;
}
);
layerId = m002;
shapes = (
{
closed = 1;
nodes = (
(847,855,l),
(847,1054,l),
(986,1054,l),
(986,1153,ls),
(986,1184,o),
(974,1198,o),
(934,1205,cs),
(848,1221,l),
(848,1866,l),
(712,1866,ls),
(678,1866,o),
(644,1861,o),
(592,1801,cs),
(122,1236,ls),
(96,1207,o),
(87,1179,o),
(87,1152,cs),
(87,1053,l),
(654,1053,l),
(654,855,l)
);
},
{
closed = 1;
nodes = (
(728,1715,l),
(656,1741,l),
(656,1231,l),
(328,1231,l)
);
}
);
width = 998;
}
);
metricRight = four;
unicode = 8308;
userData = {
KernOnSpecialSpacing = {
L = NoKerning;
R = NoKerning;
};
};
}
{
color = 6;
glyphname = infinity;
layers = (
{
layerId = "997F8AB0-1B91-48A1-A6B5-F95345F1D981";
shapes = (
{
closed = 1;
nodes = (
(711,158,o),
(819,253,o),
(896,355,c),
(966,256,o),
(1086,158,o),
(1255,158,cs),
(1520,158,o),
(1675,340,o),
(1675,592,cs),
(1675,798,o),
(1548,1030,o),
(1257,1030,cs),
(1096,1030,o),
(988,935,o),
(911,833,c),
(841,932,o),
(721,1030,o),
(552,1030,cs),
(287,1030,o),
(132,848,o),
(132,596,cs),
(132,390,o),
(259,158,o),
(550,158,cs)
);
},
{
closed = 1;
nodes = (
(502,434,o),
(440,505,o),
(440,598,cs),
(440,694,o),
(502,748,o),
(578,748,cs),
(667,748,o),
(746,659,o),
(770,590,c),
(705,473,o),
(654,434,o),
(578,434,cs)
);
},
{
closed = 1;
nodes = (
(1140,440,o),
(1061,529,o),
(1037,598,c),
(1102,715,o),
(1153,754,o),
(1229,754,cs),
(1305,754,o),
(1367,683,o),
(1367,590,cs),
(1367,494,o),
(1305,440,o),
(1229,440,cs)
);
}
);
width = 1804;
},
{
background = {
shapes = (
{
closed = 1;
nodes = (
(667,219,o),
(770,362,o),
(818,486,c),
(847,371,o),
(971,219,o),
(1176,219,cs),
(1402,219,o),
(1521,380,o),
(1521,605,cs),
(1521,796,o),
(1419,995,o),
(1169,995,cs),
(984,995,o),
(883,855,o),
(832,738,c),
(790,846,o),
(669,995,o),
(472,995,cs),
(246,995,o),
(122,834,o),
(122,609,cs),
(122,420,o),
(228,219,o),
(480,219,cs)
);
},
{
closed = 1;
nodes = (
(360,379,o),
(280,483,o),
(280,611,cs),
(280,741,o),
(361,827,o),
(498,827,cs),
(623,827,o),
(742,697,o),
(763,594,c),
(709,441,o),
(618,379,o),
(498,379,cs)
);
},
{
closed = 1;
nodes = (
(1025,386,o),
(906,517,o),
(885,619,c),
(938,773,o),
(1030,835,o),
(1149,835,cs),
(1287,835,o),
(1363,733,o),
(1363,603,cs),
(1363,471,o),
(1286,386,o),
(1149,386,cs)
);
}
);
};
layerId = m001;
shapes = (
{
closed = 1;
nodes = (
(647,219,o),
(755,362,o),
(815,461,c),
(876,368,o),
(1002,219,o),
(1184,219,cs),
(1405,219,o),
(1549,380,o),
(1549,605,cs),
(1549,794,o),
(1423,995,o),
(1186,995,cs),
(1004,995,o),
(896,852,o),
(836,753,c),
(775,846,o),
(649,995,o),
(467,995,cs),
(246,995,o),
(102,834,o),
(102,609,cs),
(102,420,o),
(228,219,o),
(465,219,cs)
);
},
{
closed = 1;
nodes = (
(370,369,o),
(286,473,o),
(286,609,cs),
(286,751,o),
(370,837,o),
(482,837,cs),
(593,837,o),
(702,707,o),
(753,594,c),
(689,441,o),
(598,369,o),
(477,369,cs)
);
},
{
closed = 1;
nodes = (
(1058,377,o),
(949,507,o),
(898,620,c),
(962,773,o),
(1053,845,o),
(1174,845,cs),
(1281,845,o),
(1365,741,o),
(1365,605,cs),
(1365,463,o),
(1281,377,o),
(1169,377,cs)
);
}
);
width = 1644;
},
{
layerId = m002;
shapes = (
{
closed = 1;
nodes = (
(664,194,o),
(778,301,o),
(846,411,c),
(921,292,o),
(1032,195,o),
(1196,195,cs),
(1429,195,o),
(1586,367,o),
(1586,606,cs),
(1586,805,o),
(1471,1021,o),
(1198,1021,cs),
(1044,1021,o),
(930,914,o),
(862,804,c),
(787,923,o),
(676,1020,o),
(512,1020,cs),
(279,1020,o),
(122,848,o),
(122,609,cs),
(122,410,o),
(237,194,o),
(510,194,cs)
);
},
{
closed = 1;
nodes = (
(407,395,o),
(338,499,o),
(338,615,cs),
(338,733,o),
(407,819,o),
(523,819,cs),
(635,819,o),
(733,693,o),
(758,599,c),
(704,457,o),
(615,395,o),
(523,395,cs)
);
},
{
closed = 1;
nodes = (
(1073,396,o),
(975,522,o),
(950,616,c),
(1004,758,o),
(1093,820,o),
(1185,820,cs),
(1301,820,o),
(1370,716,o),
(1370,600,cs),
(1370,482,o),
(1301,396,o),
(1185,396,cs)
);
}
);
width = 1704;
}
);
unicode = 8734;
}
{
color = 6;
glyphname = lozenge;
layers = (
{
background = {
shapes = (
{
closed = 1;
nodes = (
(829,-20,ls),
(931,-20,o),
(966,-2,o),
(1012,90,cs),
(1340,741,ls),
(1363,787,o),
(1377,817,o),
(1377,850,cs),
(1377,882,o),
(1365,911,o),
(1340,959,cs),
(995,1618,ls),
(943,1717,o),
(910,1725,o),
(807,1725,cs),
(781,1725,ls),
(679,1725,o),
(642,1703,o),
(598,1615,cs),
(270,952,ls),
(247,906,o),
(235,876,o),
(235,846,cs),
(235,816,o),
(247,791,o),
(270,747,cs),
(615,87,ls),
(667,-12,o),
(700,-20,o),
(803,-20,cs)
);
},
{
closed = 1;
nodes = (
(532,868,o),
(542,892,o),
(563,938,cs),
(769,1389,l),
(995,1050,l),
(1049,941,ls),
(1070,899,o),
(1080,873,o),
(1080,850,cs),
(1080,828,o),
(1071,806,o),
(1051,762,cs),
(832,287,ls),
(823,267,o),
(819,256,o),
(814,256,c),
(809,256,o),
(805,267,o),
(795,287,cs),
(560,765,ls),
(541,804,o),
(532,827,o),
(532,847,cs)
);
}
);
};
layerId = "997F8AB0-1B91-48A1-A6B5-F95345F1D981";
shapes = (
{
closed = 1;
nodes = (
(798,0,ls),
(901,0,o),
(934,8,o),
(986,107,cs),
(1331,767,ls),
(1354,811,o),
(1366,836,o),
(1366,875,cs),
(1366,912,o),
(1354,937,o),
(1331,981,cs),
(986,1641,ls),
(934,1740,o),
(901,1748,o),
(798,1748,cs),
(776,1748,ls),
(673,1748,o),
(640,1740,o),
(588,1641,cs),
(243,981,ls),
(220,937,o),
(208,912,o),
(208,875,cs),
(208,836,o),
(220,811,o),
(243,767,cs),
(588,107,ls),
(640,8,o),
(673,0,o),
(776,0,cs)
);
},
{
closed = 1;
nodes = (
(780,276,o),
(778,287,o),
(768,307,cs),
(533,785,ls),
(514,824,o),
(505,847,o),
(505,875,cs),
(505,901,o),
(514,924,o),
(533,963,cs),
(768,1441,ls),
(778,1461,o),
(780,1472,o),
(787,1472,cs),
(794,1472,o),
(796,1461,o),
(806,1441,cs),
(1041,963,ls),
(1060,924,o),
(1069,901,o),
(1069,875,cs),
(1069,847,o),
(1060,824,o),
(1041,785,cs),
(806,307,ls),
(796,287,o),
(794,276,o),
(787,276,cs)
);
}
);
width = 1612;
},
{
guides = (
{
angle = 90;
pos = (697,0);
}
);
layerId = m001;
shapes = (
{
closed = 1;
nodes = (
(742,25,ls),
(825,25,o),
(842,35,o),
(880,114,cs),
(1208,791,ls),
(1230,837,o),
(1240,860,o),
(1240,884,cs),
(1240,908,o),
(1231,933,o),
(1209,977,cs),
(864,1662,ls),
(822,1745,o),
(811,1748,o),
(720,1748,cs),
(694,1748,ls),
(611,1748,o),
(593,1737,o),
(556,1659,cs),
(228,970,ls),
(207,926,o),
(198,902,o),
(198,880,cs),
(198,858,o),
(206,839,o),
(227,797,cs),
(572,111,ls),
(614,28,o),
(625,25,o),
(716,25,cs)
);
},
{
closed = 1;
nodes = (
(709,215,o),
(690,223,o),
(683,241,c),
(428,775,ls),
(406,822,o),
(395,851,o),
(395,881,cs),
(395,912,o),
(407,943,o),
(429,995,cs),
(665,1528,l),
(670,1545,o),
(690,1556,o),
(708,1556,cs),
(727,1556,o),
(745,1546,o),
(752,1532,cs),
(1007,999,ls),
(1032,947,o),
(1043,916,o),
(1043,884,cs),
(1043,852,o),
(1030,821,o),
(1009,773,cs),
(769,240,ls),
(762,223,o),
(743,215,o),
(727,215,cs)
);
}
);
width = 1476;
},
{
guides = (
{
angle = 90;
pos = (727,0);
}
);
layerId = m002;
shapes = (
{
closed = 1;
nodes = (
(772,0,ls),
(867,0,o),
(895,16,o),
(937,103,cs),
(1265,780,ls),
(1288,828,o),
(1300,855,o),
(1300,884,cs),
(1300,912,o),
(1290,940,o),
(1266,988,cs),
(921,1673,ls),
(873,1768,o),
(847,1773,o),
(750,1773,cs),
(724,1773,ls),
(629,1773,o),
(600,1756,o),
(559,1670,cs),
(231,981,ls),
(208,933,o),
(198,906,o),
(198,880,cs),
(198,854,o),
(208,830,o),
(230,786,cs),
(575,100,ls),
(623,5,o),
(649,0,o),
(746,0,cs)
);
},
{
closed = 1;
nodes = (
(750,240,o),
(744,243,o),
(741,250,cs),
(485,786,ls),
(465,829,o),
(455,855,o),
(455,881,cs),
(455,908,o),
(466,936,o),
(487,985,cs),
(724,1521,l),
(726,1528,o),
(732,1531,o),
(738,1531,cs),
(745,1531,o),
(752,1527,o),
(755,1521,cs),
(1010,988,ls),
(1033,940,o),
(1043,912,o),
(1043,884,cs),
(1043,856,o),
(1032,829,o),
(1012,783,cs),
(772,250,ls),
(769,243,o),
(763,240,o),
(757,240,cs)
);
}
);
width = 1536;
}
);
unicode = 9674;
}
{
color = 6;
export = 0;
glyphname = _viet.brevecomb;
layers = (
{
anchors = (
{
name = floor2;
pos = (360,1624);
},
{
name = top;
pos = (363,1533);
}
);
background = {
shapes = (
{
closed = 1;
nodes = (
(557,1289,o),
(734,1433,o),
(734,1593,cs),
(734,1636,o),
(697,1666,o),
(657,1668,cs),
(573,1673,ls),
(523,1676,o),
(500,1646,o),
(494,1606,cs),
(484,1536,o),
(439,1498,o),
(364,1498,cs),
(287,1498,o),
(249,1539,o),
(232,1611,cs),
(222,1654,o),
(195,1678,o),
(156,1675,cs),
(53,1668,ls),
(6,1665,o),
(-14,1634,o),
(-14,1598,cs),
(-14,1440,o),
(140,1289,o),
(363,1289,cs)
);
}
);
};
guides = (
{
pos = (31,1297);
}
);
layerId = "997F8AB0-1B91-48A1-A6B5-F95345F1D981";
shapes = (
{
closed = 1;
nodes = (
(576,1297,o),
(730,1446,o),
(730,1606,cs),
(730,1642,o),
(710,1675,o),
(663,1678,cs),
(582,1684,ls),
(533,1688,o),
(504,1668,o),
(496,1619,cs),
(483,1541,o),
(441,1501,o),
(363,1501,cs),
(286,1501,o),
(244,1541,o),
(231,1619,cs),
(223,1668,o),
(194,1688,o),
(145,1684,cs),
(63,1678,ls),
(16,1675,o),
(-4,1642,o),
(-4,1606,cs),
(-4,1446,o),
(150,1297,o),
(363,1297,cs)
);
}
);
width = 723;
},
{
anchors = (
{
name = floor2;
pos = (340,1566);
},
{
name = top;
pos = (340,1533);
}
);
layerId = m001;
shapes = (
{
closed = 1;
nodes = (
(521,1342,o),
(645,1469,o),
(645,1600,cs),
(645,1623,o),
(633,1637,o),
(612,1638,cs),
(539,1643,ls),
(518,1644,o),
(507,1632,o),
(504,1611,cs),
(488,1502,o),
(416,1465,o),
(340,1465,cs),
(264,1465,o),
(192,1502,o),
(176,1611,cs),
(173,1632,o),
(162,1644,o),
(141,1643,cs),
(68,1638,ls),
(47,1637,o),
(35,1623,o),
(35,1600,cs),
(35,1469,o),
(159,1342,o),
(340,1342,cs)
);
}
);
width = 683;
},
{
anchors = (
{
name = floor2;
pos = (340,1598);
},
{
name = top;
pos = (340,1533);
}
);
layerId = m002;
shapes = (
{
closed = 1;
nodes = (
(577,1319,o),
(680,1488,o),
(680,1616,cs),
(680,1643,o),
(668,1663,o),
(633,1665,cs),
(528,1670,ls),
(498,1671,o),
(483,1657,o),
(481,1629,cs),
(473,1536,o),
(420,1488,o),
(343,1488,cs),
(266,1488,o),
(213,1536,o),
(205,1629,cs),
(203,1657,o),
(188,1671,o),
(158,1670,cs),
(53,1665,ls),
(18,1663,o),
(6,1643,o),
(6,1616,cs),
(6,1488,o),
(109,1319,o),
(343,1319,cs)
);
}
);
width = 683;
}
);
}
{
color = 6;
export = 0;
glyphname = _viet.tildecomb.case;
layers = (
{
anchors = (
{
name = _top;
pos = (440,1533);
}
);
background = {
shapes = (
{
closed = 1;
nodes = (
(746,1736,o),
(820,1914,o),
(820,1969,cs),
(820,2003,o),
(807,2013,o),
(770,2023,cs),
(722,2035,ls),
(675,2046,o),
(659,2038,o),
(648,2005,cs),
(633,1959,o),
(612,1939,o),
(573,1939,cs),
(508,1939,o),
(435,2052,o),
(305,2052,cs),
(134,2052,o),
(60,1874,o),
(60,1819,cs),
(60,1785,o),
(73,1775,o),
(110,1765,cs),
(158,1753,ls),
(205,1742,o),
(221,1750,o),
(232,1783,cs),
(247,1829,o),
(267,1849,o),
(306,1849,cs),
(371,1849,o),
(445,1736,o),
(575,1736,cs)
);
}
);
};
layerId = "997F8AB0-1B91-48A1-A6B5-F95345F1D981";
shapes = (
{
closed = 1;
nodes = (
(751,1711,o),
(820,1889,o),
(820,1944,cs),
(820,1978,o),
(807,1988,o),
(770,1998,cs),
(722,2010,ls),
(675,2021,o),
(654,2015,o),
(643,1982,cs),
(628,1936,o),
(609,1916,o),
(577,1916,cs),
(513,1916,o),
(430,2027,o),
(300,2027,cs),
(129,2027,o),
(60,1849,o),
(60,1794,cs),
(60,1760,o),
(73,1750,o),
(110,1740,cs),
(158,1728,ls),
(205,1717,o),
(226,1723,o),
(237,1756,cs),
(252,1802,o),
(270,1822,o),
(302,1822,cs),
(366,1822,o),
(450,1711,o),
(580,1711,cs)
);
}
);
width = 883;
},
{
anchors = (
{
name = _top;
pos = (425,1533);
}
);
background = {
shapes = (
{
closed = 1;
nodes = (
(691,1713,o),
(742,1866,o),
(742,1907,cs),
(742,1930,o),
(734,1941,o),
(714,1946,cs),
(665,1958,ls),
(640,1964,o),
(627,1955,o),
(620,1933,cs),
(599,1868,o),
(581,1851,o),
(553,1851,cs),
(484,1851,o),
(417,1965,o),
(298,1965,cs),
(158,1965,o),
(107,1812,o),
(107,1771,cs),
(107,1748,o),
(115,1737,o),
(135,1732,cs),
(184,1720,ls),
(209,1714,o),
(222,1723,o),
(229,1745,cs),
(250,1810,o),
(268,1827,o),
(296,1827,cs),
(365,1827,o),
(432,1713,o),
(551,1713,cs)
);
}
);
};
layerId = m001;
shapes = (
{
closed = 1;
nodes = (
(691,1713,o),
(742,1866,o),
(742,1907,cs),
(742,1930,o),
(734,1941,o),
(714,1946,cs),
(668,1958,ls),
(643,1964,o),
(630,1955,o),
(623,1933,cs),
(602,1865,o),
(581,1848,o),
(553,1848,cs),
(480,1848,o),
(411,1965,o),
(298,1965,cs),
(158,1965,o),
(107,1812,o),
(107,1771,cs),
(107,1748,o),
(115,1737,o),
(135,1732,cs),
(184,1720,ls),
(206,1715,o),
(219,1723,o),
(226,1745,cs),
(247,1813,o),
(268,1830,o),
(296,1830,cs),
(369,1830,o),
(438,1713,o),
(551,1713,cs)
);
}
);
width = 853;
},
{
anchors = (
{
name = _top;
pos = (426,1533);
}
);
background = {
shapes = (
{
closed = 1;
nodes = (
(667,1792,o),
(734,1917,o),
(741,1998,cs),
(743,2018,o),
(738,2026,o),
(720,2034,cs),
(667,2058,ls),
(656,2062,o),
(648,2067,o),
(638,2067,cs),
(626,2067,o),
(618,2061,o),
(614,2050,cs),
(592,1975,o),
(572,1957,o),
(540,1957,cs),
(475,1957,o),
(432,2078,o),
(313,2078,cs),
(184,2078,o),
(117,1953,o),
(110,1872,cs),
(108,1852,o),
(113,1844,o),
(131,1836,cs),
(184,1812,ls),
(195,1808,o),
(203,1803,o),
(213,1803,cs),
(225,1803,o),
(233,1809,o),
(237,1820,cs),
(259,1895,o),
(279,1913,o),
(311,1913,cs),
(376,1913,o),
(419,1792,o),
(538,1792,cs)
);
}
);
};
layerId = m002;
shapes = (
{
closed = 1;
nodes = (
(709,1754,o),
(781,1886,o),
(788,1963,cs),
(791,1995,o),
(784,2009,o),
(755,2019,cs),
(718,2032,ls),
(672,2047,o),
(655,2036,o),
(643,1999,cs),
(628,1954,o),
(606,1935,o),
(576,1935,cs),
(498,1935,o),
(415,2054,o),
(293,2054,cs),
(153,2054,o),
(81,1922,o),
(74,1845,cs),
(71,1813,o),
(78,1799,o),
(107,1789,cs),
(144,1776,ls),
(190,1761,o),
(207,1772,o),
(219,1809,cs),
(234,1854,o),
(256,1873,o),
(286,1873,cs),
(364,1873,o),
(447,1754,o),
(569,1754,cs)
);
}
);
width = 853;
}
);
}
{
color = 10;
glyphname = brevecomb_gravecomb.case;
layers = (
{
background = {
shapes = (
{
closed = 1;
nodes = (
(570,1662,o),
(706,1814,o),
(706,1970,cs),
(706,2007,o),
(675,2027,o),
(640,2029,cs),
(611,2031,o),
(576,2034,o),
(552,2034,cs),
(512,2034,o),
(490,2019,o),
(486,1983,cs),
(475,1884,o),
(429,1857,o),
(364,1857,cs),
(297,1857,o),
(247,1889,o),
(239,1987,cs),
(236,2022,o),
(208,2034,o),
(181,2034,cs),
(157,2034,o),
(108,2031,o),
(83,2029,cs),
(34,2026,o),
(13,2005,o),
(13,1975,cs),
(13,1885,o),
(51,1811,o),
(105,1756,cs),
(167,1690,o),
(259,1662,o),
(363,1662,cs)
);
},
{
closed = 1;
nodes = (
(348,2034,o),
(377,2031,o),
(407,2056,cs),
(449,2091,ls),
(472,2110,o),
(472,2140,o),
(458,2160,cs),
(266,2443,ls),
(231,2494,o),
(186,2504,o),
(143,2469,cs),
(66,2405,ls),
(31,2376,o),
(22,2328,o),
(71,2284,cs),
(324,2056,ls)
);
}
);
};
layerId = "997F8AB0-1B91-48A1-A6B5-F95345F1D981";
shapes = (
{
ref = _viet.brevecomb.case;
},
{
pos = (60,57);
ref = _viet.gravecomb.case;
}
);
width = 802;
},
{
background = {
shapes = (
{
closed = 1;
nodes = (
(583,1685,o),
(644,1868,o),
(644,1939,cs),
(644,1965,o),
(633,1979,o),
(609,1980,cs),
(598,1981,o),
(569,1983,o),
(555,1983,cs),
(532,1983,o),
(522,1975,o),
(518,1947,cs),
(503,1847,o),
(436,1800,o),
(343,1800,cs),
(250,1800,o),
(183,1847,o),
(168,1947,cs),
(164,1975,o),
(154,1983,o),
(131,1983,cs),
(117,1983,o),
(88,1980,o),
(77,1980,cs),
(52,1979,o),
(42,1965,o),
(42,1939,cs),
(42,1885,o),
(70,1820,o),
(117,1769,cs),
(170,1711,o),
(250,1685,o),
(343,1685,cs)
);
},
{
closed = 1;
nodes = (
(348,2064,o),
(359,2064,o),
(375,2080,cs),
(396,2100,ls),
(408,2112,o),
(407,2125,o),
(397,2139,cs),
(208,2416,ls),
(187,2447,o),
(162,2446,o),
(139,2426,cs),
(83,2378,ls),
(58,2356,o),
(56,2333,o),
(84,2307,cs),
(330,2080,ls)
);
}
);
};
layerId = m001;
shapes = (
{
ref = _viet.brevecomb.case;
},
{
pos = (43,91);
ref = _viet.gravecomb.case;
}
);
width = 683;
},
{
background = {
shapes = (
{
closed = 1;
nodes = (
(539,1662,o),
(666,1810,o),
(666,1962,cs),
(666,1985,o),
(648,2000,o),
(619,2002,cs),
(590,2004,o),
(550,2007,o),
(531,2007,cs),
(506,2007,o),
(489,2000,o),
(486,1973,cs),
(474,1856,o),
(415,1823,o),
(344,1823,cs),
(270,1823,o),
(209,1860,o),
(199,1977,cs),
(197,2002,o),
(179,2007,o),
(161,2007,cs),
(130,2007,o),
(89,2005,o),
(64,2003,cs),
(19,1999,o),
(13,1980,o),
(13,1955,cs),
(13,1879,o),
(48,1808,o),
(99,1753,cs),
(156,1691,o),
(244,1662,o),
(343,1662,cs)
);
},
{
closed = 1;
nodes = (
(326,2054,o),
(349,2043,o),
(372,2061,cs),
(413,2093,ls),
(426,2103,o),
(430,2125,o),
(419,2142,cs),
(233,2441,ls),
(214,2474,o),
(171,2498,o),
(129,2464,cs),
(60,2407,ls),
(33,2385,o),
(24,2352,o),
(57,2319,cs),
(312,2067,ls)
);
}
);
};
layerId = m002;
shapes = (
{
ref = _viet.brevecomb.case;
},
{
pos = (-2,69);
ref = _viet.gravecomb.case;
}
);
width = 683;
}
);
}
{
color = 10;
glyphname = brevecomb_tildecomb;
layers = (
{
anchors = (
{
name = _top;
pos = (363,1128);
}
);
background = {
shapes = (
{
closed = 1;
nodes = (
(646,1740,o),
(701,1900,o),
(701,1975,cs),
(701,2009,o),
(686,2024,o),
(658,2033,cs),
(609,2049,ls),
(596,2053,o),
(584,2057,o),
(573,2057,cs),
(557,2057,o),
(545,2053,o),
(539,2033,cs),
(518,1961,o),
(502,1948,o),
(477,1948,cs),
(414,1948,o),
(385,2076,o),
(235,2076,cs),
(75,2076,o),
(20,1912,o),
(20,1841,cs),
(20,1807,o),
(35,1792,o),
(63,1783,cs),
(112,1767,ls),
(125,1763,o),
(137,1759,o),
(148,1759,cs),
(164,1759,o),
(176,1763,o),
(182,1783,cs),
(203,1855,o),
(219,1868,o),
(244,1868,cs),
(307,1868,o),
(336,1740,o),
(486,1740,cs)
);
},
{
closed = 1;
nodes = (
(557,1289,o),
(734,1433,o),
(734,1593,cs),
(734,1636,o),
(697,1666,o),
(657,1668,cs),
(629,1670,o),
(601,1671,o),
(573,1673,cs),
(523,1676,o),
(500,1646,o),
(494,1606,cs),
(484,1536,o),
(439,1498,o),
(364,1498,cs),
(287,1498,o),
(241,1539,o),
(232,1611,cs),
(227,1648,o),
(202,1675,o),
(162,1673,cs),
(127,1671,o),
(91,1669,o),
(56,1667,cs),
(13,1665,o),
(-14,1633,o),
(-14,1598,cs),
(-14,1440,o),
(140,1289,o),
(363,1289,cs)
);
}
);
};
layerId = "997F8AB0-1B91-48A1-A6B5-F95345F1D981";
shapes = (
{
ref = _viet.brevecomb;
},
{
anchor = top;
pos = (-77,0);
ref = _viet.tildecomb;
}
);
width = 723;
},
{
anchors = (
{
name = _top;
pos = (340,1128);
}
);
background = {
shapes = (
{
closed = 1;
nodes = (
(586,1775,o),
(655,1891,o),
(655,1980,cs),
(655,1991,o),
(651,1997,o),
(645,1999,cs),
(578,2022,ls),
(569,2025,o),
(563,2027,o),
(558,2027,cs),
(549,2027,o),
(544,2022,o),
(542,2015,cs),
(522,1921,o),
(494,1906,o),
(463,1906,cs),
(405,1906,o),
(343,2035,o),
(210,2035,cs),
(94,2035,o),
(25,1919,o),
(25,1830,cs),
(25,1819,o),
(29,1813,o),
(35,1811,cs),
(102,1788,ls),
(111,1785,o),
(118,1783,o),
(122,1783,cs),
(131,1783,o),
(136,1788,o),
(138,1796,cs),
(158,1889,o),
(186,1904,o),
(217,1904,cs),
(275,1904,o),
(337,1775,o),
(469,1775,cs)
);
},
{
closed = 1;
nodes = (
(531,1342,o),
(655,1483,o),
(655,1616,cs),
(655,1639,o),
(643,1653,o),
(622,1654,cs),
(598,1656,o),
(573,1657,o),
(549,1659,cs),
(528,1660,o),
(516,1648,o),
(514,1627,cs),
(501,1506,o),
(426,1465,o),
(340,1465,cs),
(254,1465,o),
(179,1506,o),
(166,1627,cs),
(164,1648,o),
(152,1660,o),
(131,1659,cs),
(107,1657,o),
(82,1656,o),
(58,1654,cs),
(37,1653,o),
(25,1639,o),
(25,1616,cs),
(25,1483,o),
(149,1342,o),
(340,1342,cs)
);
}
);
};
layerId = m001;
shapes = (
{
ref = _viet.brevecomb;
},
{
anchor = top;
pos = (-85,0);
ref = _viet.tildecomb;
}
);
width = 683;
},
{
anchors = (
{
name = _top;
pos = (343,1128);
}
);
background = {
shapes = (
{
closed = 1;
nodes = (
(601,1773,o),
(673,1909,o),
(681,1996,cs),
(683,2018,o),
(678,2026,o),
(658,2035,cs),
(601,2061,ls),
(589,2066,o),
(580,2071,o),
(570,2071,cs),
(557,2071,o),
(548,2064,o),
(544,2052,cs),
(520,1971,o),
(498,1952,o),
(463,1952,cs),
(393,1952,o),
(346,2083,o),
(218,2083,cs),
(78,2083,o),
(6,1947,o),
(-2,1860,cs),
(-4,1838,o),
(1,1830,o),
(21,1821,cs),
(78,1795,ls),
(90,1790,o),
(99,1785,o),
(109,1785,cs),
(122,1785,o),
(131,1792,o),
(135,1804,cs),
(159,1885,o),
(181,1904,o),
(216,1904,cs),
(286,1904,o),
(333,1773,o),
(461,1773,cs)
);
},
{
closed = 1;
nodes = (
(549,1319,o),
(676,1467,o),
(676,1619,cs),
(676,1642,o),
(658,1657,o),
(629,1659,cs),
(600,1661,o),
(560,1664,o),
(541,1664,cs),
(516,1664,o),
(499,1657,o),
(496,1630,cs),
(484,1513,o),
(425,1480,o),
(344,1480,cs),
(260,1480,o),
(199,1517,o),
(189,1634,cs),
(187,1659,o),
(169,1664,o),
(151,1664,cs),
(120,1664,o),
(79,1662,o),
(54,1660,cs),
(9,1656,o),
(3,1637,o),
(3,1612,cs),
(3,1537,o),
(53,1319,o),
(343,1319,cs)
);
}
);
};
layerId = m002;
shapes = (
{
ref = _viet.brevecomb;
},
{
anchor = top;
pos = (-86,0);
ref = _viet.tildecomb;
}
);
width = 683;
}
);
}
